STARTFONT 2.3
FONT -FontForge-Butcherman-Book-R-Normal--11-110-72-72-P-59-ISO10646-1
SIZE 11 72 72  4
FONTBOUNDINGBOX 17 21 -1 -7
COMMENT "Generated by fontforge, http://fontforge.sourceforge.net"
COMMENT "Copyright (c) 2011, Typomondo, with Reserved Font Name  "Butcherman"."
STARTPROPERTIES 41
FOUNDRY "FontForge"
FAMILY_NAME "Butcherman"
WEIGHT_NAME "Book"
SLANT "R"
SETWIDTH_NAME "Normal"
ADD_STYLE_NAME ""
PIXEL_SIZE 11
POINT_SIZE 110
RESOLUTION_X 72
RESOLUTION_Y 72
SPACING "P"
AVERAGE_WIDTH 59
CHARSET_REGISTRY "ISO10646"
CHARSET_ENCODING "1"
FONTNAME_REGISTRY ""
CHARSET_COLLECTIONS "ISO8859-2 ISO8859-9 ISO8859-4 ISO10646-1"
BITS_PER_PIXEL 4
FONT_NAME "Butcherman-Regular"
FACE_NAME "Butcherman Regular"
COPYRIGHT "Copyright (c) 2011, Typomondo, with Reserved Font Name  "Butcherman"."
FONT_VERSION "001.004"
FONT_ASCENT 9
FONT_DESCENT 2
UNDERLINE_POSITION -1
UNDERLINE_THICKNESS 1
X_HEIGHT 8
CAP_HEIGHT 8
DEFAULT_CHAR 3
RAW_ASCENT 799
RAW_DESCENT 200
NORM_SPACE 2
RELATIVE_WEIGHT 40
RELATIVE_SETWIDTH 50
SUPERSCRIPT_X 0
SUPERSCRIPT_Y 3
SUPERSCRIPT_SIZE 6
SUBSCRIPT_X 0
SUBSCRIPT_Y 0
SUBSCRIPT_SIZE 6
AVG_LOWERCASE_WIDTH 64
AVG_UPPERCASE_WIDTH 61
ENDPROPERTIES
CHARS 331
STARTCHAR NULL.dup1
ENCODING 0
SWIDTH 161 0
DWIDTH 2 0
BBX 1 1 0 0
BITMAP
00
ENDCHAR
STARTCHAR CR
ENCODING 13
SWIDTH 161 0
DWIDTH 2 0
BBX 1 1 0 0
BITMAP
00
ENDCHAR
STARTCHAR space
ENCODING 32
SWIDTH 161 0
DWIDTH 2 0
BBX 1 1 0 0
BITMAP
00
ENDCHAR
STARTCHAR exclam
ENCODING 33
SWIDTH 350 0
DWIDTH 4 0
BBX 4 14 0 0
BITMAP
3761
AFF6
4FF2
6FF0
3FD0
0ED0
0DB0
0CB0
0A80
0000
6CD4
4FF5
3FF5
2752
ENDCHAR
STARTCHAR quotedbl
ENCODING 34
SWIDTH 541 0
DWIDTH 6 0
BBX 6 5 0 4
BITMAP
010020
7FAAF5
4F87F3
1F63F1
0B31B0
ENDCHAR
STARTCHAR numbersign
ENCODING 35
SWIDTH 583 0
DWIDTH 6 0
BBX 7 10 0 -1
BITMAP
00230700
00933B00
05D48A10
1FFFFE00
1BCAE900
0934A000
5E69A200
CFFFF000
460B0000
731A0000
ENDCHAR
STARTCHAR dollar
ENCODING 36
SWIDTH 534 0
DWIDTH 6 0
BBX 6 14 0 -3
BITMAP
003300
007500
007600
08EFA0
4FFFF6
8FFFF6
8FCCF5
6FEA32
07DFB0
2A7BE0
0DFF80
028610
007400
006300
ENDCHAR
STARTCHAR percent
ENCODING 37
SWIDTH 828 0
DWIDTH 9 0
BBX 9 10 0 -1
BITMAP
0000052000
4C901E1000
AFF33C0000
98F3681510
78E1B39F80
2B72D09FA0
000790BBB0
000830AD60
000C000300
0019000000
ENDCHAR
STARTCHAR ampersand
ENCODING 38
SWIDTH 522 0
DWIDTH 6 0
BBX 6 6 0 1
BITMAP
00EA00
12FB11
8FFFF4
6CFED3
00FB00
008500
ENDCHAR
STARTCHAR quotesingle
ENCODING 39
SWIDTH 300 0
DWIDTH 3 0
BBX 3 5 0 4
BITMAP
0100
6FA0
3F90
1F70
0B40
ENDCHAR
STARTCHAR parenleft
ENCODING 40
SWIDTH 372 0
DWIDTH 4 0
BBX 4 12 0 -2
BITMAP
0004
02CD
0AFB
3FF9
6FD3
8F70
9F50
8F50
5F90
0DF4
05F8
0021
ENDCHAR
STARTCHAR parenright
ENCODING 41
SWIDTH 338 0
DWIDTH 4 0
BBX 4 12 0 -2
BITMAP
1000
AE40
8FE1
8FF3
5EF2
07F2
05F1
06F0
08D0
1C90
AD10
4200
ENDCHAR
STARTCHAR asterisk
ENCODING 42
SWIDTH 513 0
DWIDTH 6 0
BBX 6 7 0 2
BITMAP
021610
0A7D30
15FD10
AFFFF4
13FD20
06BE30
033310
ENDCHAR
STARTCHAR plus
ENCODING 43
SWIDTH 458 0
DWIDTH 5 0
BBX 5 6 0 1
BITMAP
015100
03F400
7FFE70
5BFB50
04F400
002000
ENDCHAR
STARTCHAR comma
ENCODING 44
SWIDTH 361 0
DWIDTH 4 0
BBX 4 6 0 -2
BITMAP
4BA3
7FF6
7FF6
37D5
00D3
0091
ENDCHAR
STARTCHAR hyphen
ENCODING 45
SWIDTH 478 0
DWIDTH 5 0
BBX 5 3 0 3
BITMAP
144430
5FFF70
4BBB50
ENDCHAR
STARTCHAR period
ENCODING 46
SWIDTH 374 0
DWIDTH 4 0
BBX 4 4 0 0
BITMAP
4BD6
4FF8
3FF8
1753
ENDCHAR
STARTCHAR slash
ENCODING 47
SWIDTH 291 0
DWIDTH 3 0
BBX 4 10 0 -1
BITMAP
0061
00E0
03B0
0670
0D30
2D00
5900
7400
B100
9000
ENDCHAR
STARTCHAR zero
ENCODING 48
SWIDTH 528 0
DWIDTH 6 0
BBX 6 10 0 -1
BITMAP
001100
0AFF60
6FFFF2
7FFFF3
6FAEF4
5F3CF3
4F3BF1
2F7EB0
0CFF60
006700
ENDCHAR
STARTCHAR one
ENCODING 49
SWIDTH 366 0
DWIDTH 4 0
BBX 4 10 0 -1
BITMAP
0010
5AF6
AEF7
0CF7
0AF5
09F4
08F2
06F2
04D1
0011
ENDCHAR
STARTCHAR two
ENCODING 50
SWIDTH 575 0
DWIDTH 6 0
BBX 7 10 0 -1
BITMAP
00210000
0BFF9000
6FFFF400
6FFFF600
5FCDF500
395EF200
003FB000
02CFA610
5FFFEE00
5B744900
ENDCHAR
STARTCHAR three
ENCODING 51
SWIDTH 517 0
DWIDTH 6 0
BBX 6 10 0 -1
BITMAP
001000
2CFE30
9FFFD0
7FFFF2
6FAFF2
344FE0
008ED0
0587F1
06FEB0
008630
ENDCHAR
STARTCHAR four
ENCODING 52
SWIDTH 466 0
DWIDTH 5 0
BBX 5 12 0 -3
BITMAP
121220
1EFD20
0FF500
2FF100
3FD000
2FB930
4F8F40
6FCF80
8FFFB0
113E50
000C00
000400
ENDCHAR
STARTCHAR five
ENCODING 53
SWIDTH 583 0
DWIDTH 6 0
BBX 7 10 0 -1
BITMAP
12320000
6FFFFE10
6FFFFE00
6FFFFC00
5FCBC900
5F965000
1BBEC000
0487E000
06FEA000
00862000
ENDCHAR
STARTCHAR six
ENCODING 54
SWIDTH 582 0
DWIDTH 6 0
BBX 6 9 0 -1
BITMAP
1BFFB2
8FFFFB
8FFFFE
6FCDFB
4F84E7
0EEDA3
0DC1F7
09FDF7
02BAA3
ENDCHAR
STARTCHAR seven
ENCODING 55
SWIDTH 624 0
DWIDTH 7 0
BBX 7 10 0 -1
BITMAP
00123320
AFFFFFA0
8FFFFF50
6FFFFF10
4DCAFB00
0003F700
0009F100
001E8000
005F2000
00AB0000
ENDCHAR
STARTCHAR eight
ENCODING 56
SWIDTH 459 0
DWIDTH 5 0
BBX 5 10 0 -1
BITMAP
002100
5FFF50
8FFF90
7FFF70
4F8F50
1F9F20
0CEC00
0E4E00
0CDD00
036300
ENDCHAR
STARTCHAR nine
ENCODING 57
SWIDTH 584 0
DWIDTH 6 0
BBX 6 11 0 -2
BITMAP
000100
06EFC3
3FFFFB
8FFFFD
7FDAFE
4FEBFD
07BCF9
1A96F4
0DFFB0
024630
000100
ENDCHAR
STARTCHAR colon
ENCODING 58
SWIDTH 386 0
DWIDTH 4 0
BBX 4 10 0 0
BITMAP
1352
5FF8
3FF8
2FD8
0000
0000
4CD6
5FF8
2FF8
1753
ENDCHAR
STARTCHAR semicolon
ENCODING 59
SWIDTH 375 0
DWIDTH 4 0
BBX 4 12 0 -2
BITMAP
1462
6FF7
4FF7
3FD6
0100
0000
4BA4
4FF7
5FF6
37D6
00D4
0092
ENDCHAR
STARTCHAR less
ENCODING 60
SWIDTH 459 0
DWIDTH 5 0
BBX 5 7 0 0
BITMAP
03BB60
09FC10
5FF300
7FD100
1CF700
01DF60
001220
ENDCHAR
STARTCHAR equal
ENCODING 61
SWIDTH 485 0
DWIDTH 5 0
BBX 5 4 0 3
BITMAP
3A9960
3AA950
277740
3BCB60
ENDCHAR
STARTCHAR greater
ENCODING 62
SWIDTH 432 0
DWIDTH 5 0
BBX 5 7 0 0
BITMAP
6BB100
1DF600
03FE30
01EF40
09F900
7FD100
111000
ENDCHAR
STARTCHAR question
ENCODING 63
SWIDTH 577 0
DWIDTH 6 0
BBX 6 11 0 -2
BITMAP
039820
3EFFE2
6FFFF7
5FDEF7
163BF5
002FC0
004F30
001200
01DE00
00CF00
002100
ENDCHAR
STARTCHAR at
ENCODING 64
SWIDTH 930 0
DWIDTH 10 0
BBX 10 13 0 -3
BITMAP
0002652000
005EFEE500
03D5555E40
0C3DFFD6E1
3B3FFFF1F8
780FDCD0DC
870A69B0BD
790BBCD09B
6D0CACF8A8
2F48CC7EB1
08C1000000
009EBBB000
0003652000
ENDCHAR
STARTCHAR A
ENCODING 65
SWIDTH 494 0
DWIDTH 5 0
BBX 5 10 0 -2
BITMAP
4DED90
0CFF50
0CFF20
0CFF10
0CBF10
0D8F10
0DFF10
0CCD00
094900
010400
ENDCHAR
STARTCHAR B
ENCODING 66
SWIDTH 517 0
DWIDTH 6 0
BBX 6 10 0 -1
BITMAP
002200
6EFFE2
1EFFF4
0DFFF3
0BE9F0
0BEAC0
0AFF80
08C8A0
08ED80
023510
ENDCHAR
STARTCHAR C
ENCODING 67
SWIDTH 504 0
DWIDTH 6 0
BBX 6 11 0 -2
BITMAP
002200
1AFF90
8FFFF3
AFFFF4
9FCDF3
6F7591
4F6210
1F8CC0
0BFF60
017800
000100
ENDCHAR
STARTCHAR D
ENCODING 68
SWIDTH 522 0
DWIDTH 6 0
BBX 6 10 0 -2
BITMAP
5CEFB1
4FFFF7
0FFFF8
0DF9F6
0CD1F3
0AD2F0
08E8D0
07CFA0
051910
000200
ENDCHAR
STARTCHAR E
ENCODING 69
SWIDTH 570 0
DWIDTH 6 0
BBX 6 10 0 -1
BITMAP
001100
6FFFF9
1FFFF6
0EFFF2
0DE790
0CEA30
0AFD40
08D630
06CE60
023220
ENDCHAR
STARTCHAR F
ENCODING 70
SWIDTH 559 0
DWIDTH 6 0
BBX 6 9 0 -1
BITMAP
6FFEE6
0CFFF4
0AFFF1
09FBD0
07FB70
06FD90
05F400
07F500
035200
ENDCHAR
STARTCHAR G
ENCODING 71
SWIDTH 499 0
DWIDTH 5 0
BBX 6 9 0 -1
BITMAP
2BFD50
8FFFF2
9FFFF3
7FAEF1
5F48B0
3F6DC0
1F7BF0
0CFFC0
036920
ENDCHAR
STARTCHAR H
ENCODING 72
SWIDTH 726 0
DWIDTH 8 0
BBX 8 12 0 -3
BITMAP
00011100
4BF67FE6
1FF55FE1
0DF48FA0
0AF48F70
08FBDF30
06FCEF10
04F5CE00
03F5DC00
02306600
00002000
00001000
ENDCHAR
STARTCHAR I
ENCODING 73
SWIDTH 401 0
DWIDTH 4 0
BBX 4 10 0 -1
BITMAP
1222
8FFD
0DF8
0BF8
0CF5
0AF5
09F3
07F3
05D2
0131
ENDCHAR
STARTCHAR J
ENCODING 74
SWIDTH 455 0
DWIDTH 5 0
BBX 6 9 -1 -1
BITMAP
003FF6
000DF2
000ED0
000FC0
000EA0
193F70
2F8F60
0CEE10
002200
ENDCHAR
STARTCHAR K
ENCODING 75
SWIDTH 580 0
DWIDTH 6 0
BBX 6 10 0 -1
BITMAP
011010
7FE4FA
0DF7C1
09FD80
07FF60
05FF70
03FF80
02FAB0
01F4E0
002230
ENDCHAR
STARTCHAR L
ENCODING 76
SWIDTH 416 0
DWIDTH 5 0
BBX 5 10 0 -1
BITMAP
111100
7FF600
3FF000
1FF000
0EE000
0DF000
0BE000
0AF860
07FFB0
014450
ENDCHAR
STARTCHAR M
ENCODING 77
SWIDTH 740 0
DWIDTH 8 0
BBX 8 10 0 -1
BITMAP
01333310
7FF99FF6
0FFDCFF0
0DFFFFD0
0BFFFFC0
09FEEFC0
07FBBEB0
04FA9E90
03C66B70
00300010
ENDCHAR
STARTCHAR N
ENCODING 78
SWIDTH 610 0
DWIDTH 7 0
BBX 7 11 0 -2
BITMAP
00111000
6EF4FD20
1FF7FA00
0FFCF800
0DFFF600
0BFFF400
08EFF300
06DBF200
05E6F100
0483A000
02210000
ENDCHAR
STARTCHAR O
ENCODING 79
SWIDTH 504 0
DWIDTH 6 0
BBX 6 10 0 -1
BITMAP
001000
1AFE70
8FFFF2
9FFFF3
8FAEF3
5F4BF3
3F5BE1
1F8DC0
0CFF60
005820
ENDCHAR
STARTCHAR P
ENCODING 80
SWIDTH 545 0
DWIDTH 6 0
BBX 6 10 0 -1
BITMAP
001200
6FFFF5
0DFFFA
0BFFF8
09F7E7
06F4D6
04FFF2
03F720
01F500
004300
ENDCHAR
STARTCHAR Q
ENCODING 81
SWIDTH 520 0
DWIDTH 6 0
BBX 6 10 0 -2
BITMAP
18EF70
7FFFF4
AFFFF6
AFD9F6
6FB5F5
3FB5F4
0DEAF2
04FFE3
0046E4
000020
ENDCHAR
STARTCHAR R
ENCODING 82
SWIDTH 599 0
DWIDTH 7 0
BBX 7 10 0 -1
BITMAP
00110000
6DFFF800
1DFFFF50
09FFFF50
08F7BF40
05F9CF10
02FFFA00
00F7F800
00E7D900
00524600
ENDCHAR
STARTCHAR S
ENCODING 83
SWIDTH 504 0
DWIDTH 6 0
BBX 6 10 0 -1
BITMAP
000100
09EF80
6FFFF4
AFFFF4
AFAEF3
7FD831
08EFB0
3A5DD0
1EFF70
035510
ENDCHAR
STARTCHAR T
ENCODING 84
SWIDTH 622 0
DWIDTH 7 0
BBX 7 11 0 -2
BITMAP
00110000
5EFFFC40
1FFFFF00
0DFFFE00
0BDFCA00
004F7000
004F7000
004F5000
002F6000
003D4000
00100000
ENDCHAR
STARTCHAR U
ENCODING 85
SWIDTH 637 0
DWIDTH 7 0
BBX 7 10 0 -1
BITMAP
01200000
6FF1DD50
1FF1FF20
0EF2FD00
0CF2FA00
0BF2F800
0AF4F600
08FAF400
03EBB100
00202000
ENDCHAR
STARTCHAR V
ENCODING 86
SWIDTH 570 0
DWIDTH 6 0
BBX 7 10 0 -1
BITMAP
01201100
7F94FD10
0EA7F600
0DB9F200
0CCCD000
0ACEA000
08EF6000
06FF3000
03FE0000
00A80000
ENDCHAR
STARTCHAR W
ENCODING 87
SWIDTH 777 0
DWIDTH 9 0
BBX 9 9 0 0
BITMAP
0000401000
5BE4E2FC20
1CF8F9F600
05FDFFC000
02FFFF7000
00AFFF5000
006FDF2000
002F9D0000
000B790000
ENDCHAR
STARTCHAR X
ENCODING 88
SWIDTH 587 0
DWIDTH 6 0
BBX 7 10 0 -1
BITMAP
00100000
4EF5EB20
07FCE200
01EFA000
00CF7000
00AF3000
009F2000
00BF4000
00EA9000
01624000
ENDCHAR
STARTCHAR Y
ENCODING 89
SWIDTH 688 0
DWIDTH 8 0
BBX 8 10 0 -1
BITMAP
00101000
4EF65EB4
02EDBF70
005FFB00
000EF700
0008F600
0004F500
0003F400
0001F300
00004000
ENDCHAR
STARTCHAR Z
ENCODING 90
SWIDTH 695 0
DWIDTH 8 0
BBX 8 10 0 -1
BITMAP
00222000
6EFFFEB3
2FFFFFD0
0BFFFF60
09ACFC00
001EC100
005F3000
00BD7100
01EFE100
00113000
ENDCHAR
STARTCHAR bracketleft
ENCODING 91
SWIDTH 410 0
DWIDTH 5 0
BBX 5 11 0 -1
BITMAP
176500
3FFF20
3FDB20
4F6000
5F6000
5F6000
6F6000
5F6000
3F8310
1FEF20
021100
ENDCHAR
STARTCHAR backslash
ENCODING 92
SWIDTH 292 0
DWIDTH 3 0
BBX 4 10 0 -1
BITMAP
7000
B300
7600
4A00
0E20
0950
0590
01A0
00B1
0073
ENDCHAR
STARTCHAR bracketright
ENCODING 93
SWIDTH 407 0
DWIDTH 4 0
BBX 4 11 0 -1
BITMAP
3774
AFFA
8CFA
00EB
00DB
00CC
00CD
00CC
33DB
BFFC
0213
ENDCHAR
STARTCHAR asciicircum
ENCODING 94
SWIDTH 523 0
DWIDTH 6 0
BBX 6 5 0 7
BITMAP
039A00
0AFF60
2F8CD0
6D13E3
010010
ENDCHAR
STARTCHAR underscore
ENCODING 95
SWIDTH 452 0
DWIDTH 5 0
BBX 5 3 0 -1
BITMAP
365520
7FFF60
244310
ENDCHAR
STARTCHAR grave
ENCODING 96
SWIDTH 444 0
DWIDTH 5 0
BBX 5 3 0 8
BITMAP
097000
2DF900
003710
ENDCHAR
STARTCHAR a
ENCODING 97
SWIDTH 479 0
DWIDTH 5 0
BBX 6 10 0 -1
BITMAP
013231
7FFFC0
0DFF70
0CFF60
0CFF50
0CCF60
0E8F70
0ECF60
0EBF40
0C3830
ENDCHAR
STARTCHAR b
ENCODING 98
SWIDTH 610 0
DWIDTH 7 0
BBX 7 10 0 -1
BITMAP
00001000
5CEFFD10
1EFFFF50
09FFFF60
07FACF40
05F9BD00
04FFF700
02F7CB00
00EBD900
0067B300
ENDCHAR
STARTCHAR c
ENCODING 99
SWIDTH 534 0
DWIDTH 6 0
BBX 6 10 0 -1
BITMAP
001200
1AFFC2
8FFFF8
AFFFF9
8FEBF8
5FB3B5
3FA000
0EC8D0
09FEA0
015710
ENDCHAR
STARTCHAR d
ENCODING 100
SWIDTH 573 0
DWIDTH 6 0
BBX 7 11 0 -2
BITMAP
00110000
6EFFD300
3FFFFE00
0DFFFF20
0AFDFF10
06F4BC00
04F4A800
02F4D400
01FDF100
00ABA000
00100000
ENDCHAR
STARTCHAR e
ENCODING 101
SWIDTH 632 0
DWIDTH 7 0
BBX 7 10 0 -1
BITMAP
00010000
6EFFFE50
1FFFFE00
0DFFFA00
0BFBA800
08F95000
05FFE000
04F73000
01FFF100
00355000
ENDCHAR
STARTCHAR f
ENCODING 102
SWIDTH 559 0
DWIDTH 6 0
BBX 6 10 0 -1
BITMAP
001000
6FFFE6
0CFFF3
0AFFF1
09FBD0
07FB60
06FD80
05F400
07F400
035300
ENDCHAR
STARTCHAR g
ENCODING 103
SWIDTH 546 0
DWIDTH 6 0
BBX 6 9 0 -1
BITMAP
2CFFA1
9FFFF8
9FFFFC
7FCDFA
5F75D7
1F8993
0DB7F5
0AFDF4
02BA91
ENDCHAR
STARTCHAR h
ENCODING 104
SWIDTH 730 0
DWIDTH 8 0
BBX 8 10 0 -1
BITMAP
00121210
4DF75FF7
0EF64FF1
0DF56FB0
0AF56F80
07FDEF40
05FBDF20
04F6BF00
03F6CD00
01204500
ENDCHAR
STARTCHAR i
ENCODING 105
SWIDTH 412 0
DWIDTH 5 0
BBX 5 10 0 -1
BITMAP
022000
7FFE10
0BF900
0AF700
0BF400
09F400
07F300
05F100
04E100
002000
ENDCHAR
STARTCHAR j
ENCODING 106
SWIDTH 458 0
DWIDTH 5 0
BBX 6 10 -1 -1
BITMAP
001200
007FE6
002FF5
000EF1
000EF1
000DF0
194DD0
0FADB0
09FF70
001320
ENDCHAR
STARTCHAR k
ENCODING 107
SWIDTH 636 0
DWIDTH 7 0
BBX 7 10 0 -1
BITMAP
00011100
6EE6EF50
0EF7F500
07FAF000
05FDA000
04FF6000
01FFA000
00E9E100
00D5D500
00213200
ENDCHAR
STARTCHAR l
ENCODING 108
SWIDTH 438 0
DWIDTH 5 0
BBX 6 10 0 -1
BITMAP
011220
5FFB10
0EF500
0DF400
0BF400
07F400
06F300
05FA71
03FED0
013260
ENDCHAR
STARTCHAR m
ENCODING 109
SWIDTH 770 0
DWIDTH 8 0
BBX 9 10 0 -1
BITMAP
0001222000
4BEC5FFA10
1FFE9FF200
0EFFEFE000
0CFFFFB000
0BFFFF9000
08FCCF6000
06FAAF2000
05D77D0000
0210010000
ENDCHAR
STARTCHAR n
ENCODING 110
SWIDTH 664 0
DWIDTH 7 0
BBX 8 10 0 -1
BITMAP
01211000
8FF7AFD1
2FFC8F60
1FFFBF20
0EFFFF00
0DFFFD00
0AEEFB00
08D9F800
07C7F400
0353A000
ENDCHAR
STARTCHAR o
ENCODING 111
SWIDTH 545 0
DWIDTH 6 0
BBX 6 10 0 -1
BITMAP
001100
1BFFB1
8FFFFA
AFFFFB
7FCCFB
5F68F9
3F68F5
0EABF1
09FFB0
002640
ENDCHAR
STARTCHAR p
ENCODING 112
SWIDTH 557 0
DWIDTH 6 0
BBX 6 10 0 -1
BITMAP
001000
6FFFE5
0DFFFC
0BFFFB
0AF7E9
08F3D7
06FEF3
04F740
03F500
016200
ENDCHAR
STARTCHAR q
ENCODING 113
SWIDTH 562 0
DWIDTH 6 0
BBX 6 11 0 -2
BITMAP
001200
19FFD2
7FFFFB
AFFFFD
9FE4FD
5FC0EC
3FD1EB
0CFAF8
03EFF9
002599
000001
ENDCHAR
STARTCHAR r
ENCODING 114
SWIDTH 616 0
DWIDTH 7 0
BBX 7 10 0 -1
BITMAP
00110000
6DFFFA20
0DFFFF80
09FFFF70
07F9BF40
06FABF10
04FFFB00
03F9F500
03F7F500
01617500
ENDCHAR
STARTCHAR s
ENCODING 115
SWIDTH 481 0
DWIDTH 5 0
BBX 5 10 0 -1
BITMAP
001000
0AFF60
6FFFF0
AFFFE0
AFAFD0
7FB750
1AFF30
285F60
1EEF20
057500
ENDCHAR
STARTCHAR t
ENCODING 116
SWIDTH 683 0
DWIDTH 8 0
BBX 7 11 0 -2
BITMAP
00222100
7EFFFFD0
2FFFFF80
0CFFFF70
0ABFEA50
000EE000
000DE000
000CE000
000AD000
0009C000
00002000
ENDCHAR
STARTCHAR u
ENCODING 117
SWIDTH 708 0
DWIDTH 8 0
BBX 8 9 0 0
BITMAP
00110000
5EF75DB5
0EF76FF2
0BF95FC0
09F96F80
07F88F60
05F99F40
01FDCF10
00ABDA00
ENDCHAR
STARTCHAR v
ENCODING 118
SWIDTH 644 0
DWIDTH 7 0
BBX 7 10 0 -1
BITMAP
00101000
3FF1BF80
0CF3FE10
08F5FA00
05F8F700
01FAF400
00CEF100
007FD000
002FA000
00082000
ENDCHAR
STARTCHAR w
ENCODING 119
SWIDTH 704 0
DWIDTH 8 0
BBX 8 9 0 0
BITMAP
00011000
6DA879B4
0CDABCD0
07FDFF70
03FFFF20
00CFFF10
008FEE00
004FAC00
000A7A00
ENDCHAR
STARTCHAR x
ENCODING 120
SWIDTH 599 0
DWIDTH 7 0
BBX 7 10 0 -1
BITMAP
00100000
4EF5FC30
06FDF300
00DFA000
00BF7000
009F4000
008F3000
00BF5000
00E9A000
01523000
ENDCHAR
STARTCHAR y
ENCODING 121
SWIDTH 604 0
DWIDTH 7 0
BBX 7 10 0 -1
BITMAP
00101000
4ED1EB20
04FBF600
00BFB000
008F9000
004F7000
002F6000
002F6000
002F4000
00071000
ENDCHAR
STARTCHAR z
ENCODING 122
SWIDTH 622 0
DWIDTH 7 0
BBX 7 10 0 -1
BITMAP
01222000
6FFFFE40
2FFFFE10
0AFFFB00
08BDF400
011F8000
005E1000
00AC6000
00EFE000
00235000
ENDCHAR
STARTCHAR braceleft
ENCODING 123
SWIDTH 372 0
DWIDTH 4 0
BBX 4 12 0 -2
BITMAP
0004
02CD
0AFB
3FF9
6FD3
8F70
9F50
8F50
5F90
0DF4
05F8
0021
ENDCHAR
STARTCHAR bar
ENCODING 124
SWIDTH 208 0
DWIDTH 2 0
BBX 2 10 0 -1
BITMAP
37
59
49
47
48
58
58
47
47
57
ENDCHAR
STARTCHAR braceright
ENCODING 125
SWIDTH 338 0
DWIDTH 4 0
BBX 4 12 0 -2
BITMAP
1000
AE40
8FE1
8FF3
5EF2
07F2
05F1
06F0
08D0
1C90
AD10
4200
ENDCHAR
STARTCHAR asciitilde
ENCODING 126
SWIDTH 535 0
DWIDTH 6 0
BBX 6 3 0 6
BITMAP
040450
6FCFF4
09B581
ENDCHAR
STARTCHAR exclamdown
ENCODING 161
SWIDTH 347 0
DWIDTH 4 0
BBX 4 14 0 0
BITMAP
2862
3FF6
4FF6
5BD4
0000
0A90
0CB0
0CB0
0ED0
3FE0
5FF1
4FF2
9FF6
2651
ENDCHAR
STARTCHAR cent
ENCODING 162
SWIDTH 552 0
DWIDTH 6 0
BBX 6 16 0 -4
BITMAP
000200
003500
003500
004600
19FFC2
7FFFF8
AFFFF9
7FEBF9
4FB3B6
2FB000
0ED7D0
09FEB0
016A10
002400
002500
002500
ENDCHAR
STARTCHAR sterling
ENCODING 163
SWIDTH 589 0
DWIDTH 6 0
BBX 7 9 0 -1
BITMAP
1AFFB200
7FFFFC00
7FFFFF10
5FDCFD00
3F93D900
6EE50000
0BF97300
0DEFF100
02457000
ENDCHAR
STARTCHAR yen
ENCODING 165
SWIDTH 692 0
DWIDTH 8 0
BBX 8 10 0 0
BITMAP
55603421
3DF4AFD3
02EDFE20
007FF800
3BCFFCC1
155DF751
267DF871
0009F100
0006E200
00010000
ENDCHAR
STARTCHAR brokenbar
ENCODING 166
SWIDTH 201 0
DWIDTH 2 0
BBX 2 10 0 -1
BITMAP
45
68
67
46
00
00
36
47
47
48
ENDCHAR
STARTCHAR section
ENCODING 167
SWIDTH 477 0
DWIDTH 5 0
BBX 5 11 0 -2
BITMAP
002200
08FF90
1FFFD0
1FEF90
0FB830
3EFF40
AF2E60
9F9F10
2BEC00
3B9C00
0DD600
ENDCHAR
STARTCHAR dieresis
ENCODING 168
SWIDTH 633 0
DWIDTH 7 0
BBX 7 4 0 8
BITMAP
15415700
3FD2FF10
4FD2FF20
02202100
ENDCHAR
STARTCHAR copyright
ENCODING 169
SWIDTH 783 0
DWIDTH 9 0
BBX 9 10 0 -1
BITMAP
0015630000
03B6987000
1C3EFC2700
677FFF2800
937FDF2630
836F390630
753F250900
2A1ECA2900
078676B200
005BBA2000
ENDCHAR
STARTCHAR guillemotleft
ENCODING 171
SWIDTH 759 0
DWIDTH 8 0
BBX 8 7 0 0
BITMAP
01AA27A7
08F93FE2
4FE1CF80
8F90EF30
1CF25FA0
02ED28F7
00132023
ENDCHAR
STARTCHAR uni00AD
ENCODING 173
SWIDTH 446 0
DWIDTH 5 0
BBX 5 2 0 3
BITMAP
387720
4BBB30
ENDCHAR
STARTCHAR registered
ENCODING 174
SWIDTH 780 0
DWIDTH 9 0
BBX 9 10 0 -1
BITMAP
0015520000
04C7356000
1CCFFB3600
675FFF2900
934F8F1920
711FCD0920
550CBB0600
1B198E2600
04C636B200
0029B81000
ENDCHAR
STARTCHAR macron
ENCODING 175
SWIDTH 446 0
DWIDTH 5 0
BBX 5 2 0 3
BITMAP
387720
4BBB30
ENDCHAR
STARTCHAR acute
ENCODING 180
SWIDTH 439 0
DWIDTH 5 0
BBX 5 3 0 8
BITMAP
009600
1BFB10
362000
ENDCHAR
STARTCHAR mu
ENCODING 181
SWIDTH 679 0
DWIDTH 7 0
BBX 8 10 0 -1
BITMAP
00100000
7EF48CB3
3FF49FD0
0FF68F90
0CF69F40
0AF4BF30
09F5CF10
04FAFC00
01CAD700
00001000
ENDCHAR
STARTCHAR paragraph
ENCODING 182
SWIDTH 591 0
DWIDTH 7 0
BBX 7 10 0 -1
BITMAP
00011000
4EFFFE30
AFFEAA00
8FFE6800
5FFD6800
0CEC7600
000A6300
00096100
00096100
00044000
ENDCHAR
STARTCHAR periodcentered
ENCODING 183
SWIDTH 388 0
DWIDTH 4 0
BBX 4 4 0 2
BITMAP
4BD7
3FF8
2FF9
1753
ENDCHAR
STARTCHAR cedilla
ENCODING 184
SWIDTH 270 0
DWIDTH 3 0
BBX 3 4 0 -4
BITMAP
3A00
6B40
1870
4940
ENDCHAR
STARTCHAR guillemotright
ENCODING 187
SWIDTH 767 0
DWIDTH 8 0
BBX 9 7 0 0
BITMAP
6BB0892000
1DF53EC100
03FE27F900
01EF23FF10
0AF80CF900
7FD16FD100
1110342000
ENDCHAR
STARTCHAR Agrave
ENCODING 192
SWIDTH 494 0
DWIDTH 5 0
BBX 6 13 -1 -2
BITMAP
0A6000
3DF900
003710
04DED9
00CFF5
00CFF2
00CFF1
00CBF1
00D8F1
00DFF1
00CCD0
009490
001040
ENDCHAR
STARTCHAR Aacute
ENCODING 193
SWIDTH 494 0
DWIDTH 5 0
BBX 7 13 0 -2
BITMAP
00006A00
0009FD30
00173000
4DED9000
0CFF5000
0CFF2000
0CFF1000
0CBF1000
0D8F1000
0DFF1000
0CCD0000
09490000
01040000
ENDCHAR
STARTCHAR Acircumflex
ENCODING 194
SWIDTH 494 0
DWIDTH 5 0
BBX 5 15 0 -2
BITMAP
036500
0CFF20
3F7E90
A705E0
100010
4DED90
0CFF50
0CFF20
0CFF10
0CBF10
0D8F10
0DFF10
0CCD00
094900
010400
ENDCHAR
STARTCHAR Atilde
ENCODING 195
SWIDTH 494 0
DWIDTH 5 0
BBX 6 14 0 -2
BITMAP
130630
AECFE1
1B9670
000000
4DED90
0CFF50
0CFF20
0CFF10
0CBF10
0D8F10
0DFF10
0CCD00
094900
010400
ENDCHAR
STARTCHAR Adieresis
ENCODING 196
SWIDTH 494 0
DWIDTH 5 0
BBX 6 14 0 -2
BITMAP
441472
EF3CF6
EF3CF7
230110
4DED90
0CFF50
0CFF20
0CFF10
0CBF10
0D8F10
0DFF10
0CCD00
094900
010400
ENDCHAR
STARTCHAR Aring
ENCODING 197
SWIDTH 494 0
DWIDTH 5 0
BBX 5 14 0 -2
BITMAP
004200
09BD20
084A20
03A700
4DED90
0CFF50
0CFF20
0CFF10
0CBF10
0D8F10
0DFF10
0CCD00
094900
010400
ENDCHAR
STARTCHAR AE
ENCODING 198
SWIDTH 733 0
DWIDTH 8 0
BBX 8 11 0 -2
BITMAP
00011100
4DFFFFE7
0DFFFFF2
0CFFFFD0
0CFFC770
0CBFD910
0D8FED10
0DFFC610
0CBEDE30
09387310
01033200
ENDCHAR
STARTCHAR Ccedilla
ENCODING 199
SWIDTH 504 0
DWIDTH 6 0
BBX 6 14 0 -5
BITMAP
002200
1AFF90
8FFFF3
AFFFF4
9FCDF3
6F7591
4F6210
1F8CC0
0BFF60
017800
000A40
000D91
0002D1
000890
ENDCHAR
STARTCHAR Egrave
ENCODING 200
SWIDTH 570 0
DWIDTH 6 0
BBX 6 12 0 -1
BITMAP
3B1000
AFD300
016500
6FFFF9
1FFFF6
0EFFF2
0DE790
0CEA30
0AFD40
08D630
06CE60
023220
ENDCHAR
STARTCHAR Eacute
ENCODING 201
SWIDTH 570 0
DWIDTH 6 0
BBX 7 12 0 -1
BITMAP
00002C20
0004EF80
00165100
6FFFF900
1FFFF600
0EFFF200
0DE79000
0CEA3000
0AFD4000
08D63000
06CE6000
02322000
ENDCHAR
STARTCHAR Ecircumflex
ENCODING 202
SWIDTH 570 0
DWIDTH 6 0
BBX 6 14 0 -1
BITMAP
006710
05FF80
0CBAE1
3D11C6
011110
6FFFF9
1FFFF6
0EFFF2
0DE790
0CEA30
0AFD40
08D630
06CE60
023220
ENDCHAR
STARTCHAR Edieresis
ENCODING 203
SWIDTH 570 0
DWIDTH 6 0
BBX 6 13 0 -1
BITMAP
253265
7FA6FC
7FA6FD
122121
6FFFF9
1FFFF6
0EFFF2
0DE790
0CEA30
0AFD40
08D630
06CE60
023220
ENDCHAR
STARTCHAR Igrave
ENCODING 204
SWIDTH 401 0
DWIDTH 4 0
BBX 5 12 -1 -1
BITMAP
3B1000
9FD300
027620
08FFD0
00DF80
00BF80
00CF50
00AF50
009F30
007F30
005D20
001310
ENDCHAR
STARTCHAR Iacute
ENCODING 205
SWIDTH 401 0
DWIDTH 4 0
BBX 6 12 0 -1
BITMAP
0002C2
004EF8
127610
8FFD00
0DF800
0BF800
0CF500
0AF500
09F300
07F300
05D200
013100
ENDCHAR
STARTCHAR Icircumflex
ENCODING 206
SWIDTH 401 0
DWIDTH 4 0
BBX 6 14 -1 -1
BITMAP
006710
05FF80
0CBAE1
3D11C6
022220
08FFD0
00DF80
00BF80
00CF50
00AF50
009F30
007F30
005D20
001310
ENDCHAR
STARTCHAR Idieresis
ENCODING 207
SWIDTH 401 0
DWIDTH 4 0
BBX 6 13 -1 -1
BITMAP
253265
7FA6FC
7FA6FD
144231
08FFD0
00DF80
00BF80
00CF50
00AF50
009F30
007F30
005D20
001310
ENDCHAR
STARTCHAR Eth
ENCODING 208
SWIDTH 530 0
DWIDTH 6 0
BBX 6 11 0 -2
BITMAP
000110
1BEFE3
0DFFFD
08FFFF
07FBDE
4AF9AA
15F6A7
01F8E4
00EEE1
005730
000200
ENDCHAR
STARTCHAR Ntilde
ENCODING 209
SWIDTH 610 0
DWIDTH 7 0
BBX 7 14 0 -2
BITMAP
04027000
2FCFF800
06C68200
00111000
6EF4FD20
1FF7FA00
0FFCF800
0DFFF600
0BFFF400
08EFF300
06DBF200
05E6F100
0483A000
02210000
ENDCHAR
STARTCHAR Ograve
ENCODING 210
SWIDTH 504 0
DWIDTH 6 0
BBX 7 12 -1 -1
BITMAP
0A600000
3DF90000
00381000
01AFE700
08FFFF20
09FFFF30
08FAEF30
05F4BF30
03F5BE10
01F8DC00
00CFF600
00058200
ENDCHAR
STARTCHAR Oacute
ENCODING 211
SWIDTH 504 0
DWIDTH 6 0
BBX 7 12 0 -1
BITMAP
00006900
0009FD20
00173000
1AFE7000
8FFFF200
9FFFF300
8FAEF300
5F4BF300
3F5BE100
1F8DC000
0CFF6000
00582000
ENDCHAR
STARTCHAR Ocircumflex
ENCODING 212
SWIDTH 504 0
DWIDTH 6 0
BBX 6 14 0 -1
BITMAP
036500
0CFE10
4F7E80
A705E0
101010
1AFE70
8FFFF2
9FFFF3
8FAEF3
5F4BF3
3F5BE1
1F8DC0
0CFF60
005820
ENDCHAR
STARTCHAR Otilde
ENCODING 213
SWIDTH 504 0
DWIDTH 6 0
BBX 6 13 0 -1
BITMAP
221710
DDDFC0
3C8750
001000
1AFE70
8FFFF2
9FFFF3
8FAEF3
5F4BF3
3F5BE1
1F8DC0
0CFF60
005820
ENDCHAR
STARTCHAR Odieresis
ENCODING 214
SWIDTH 504 0
DWIDTH 6 0
BBX 6 13 0 -1
BITMAP
541472
EF3DF5
EF3DF6
231210
1AFE70
8FFFF2
9FFFF3
8FAEF3
5F4BF3
3F5BE1
1F8DC0
0CFF60
005820
ENDCHAR
STARTCHAR multiply
ENCODING 215
SWIDTH 359 0
DWIDTH 4 0
BBX 4 5 0 2
BITMAP
0110
7CB8
4FF5
7FF9
4985
ENDCHAR
STARTCHAR Oslash
ENCODING 216
SWIDTH 658 0
DWIDTH 7 0
BBX 9 10 -1 -1
BITMAP
0000100000
006EFC3110
03FFFFB600
05FFFFC000
03FDAFB000
01F9AFB000
00ED5F8000
00CD8F5000
068FFE1000
1105740000
ENDCHAR
STARTCHAR Ugrave
ENCODING 217
SWIDTH 637 0
DWIDTH 7 0
BBX 7 12 0 -1
BITMAP
0B400000
4EF70000
01570000
6FF1DD50
1FF1FF20
0EF2FD00
0CF2FA00
0BF2F800
0AF4F600
08FAF400
03EBB100
00202000
ENDCHAR
STARTCHAR Uacute
ENCODING 218
SWIDTH 637 0
DWIDTH 7 0
BBX 8 12 0 -1
BITMAP
00000870
0001AFC1
01227200
6FF1DD50
1FF1FF20
0EF2FD00
0CF2FA00
0BF2F800
0AF4F600
08FAF400
03EBB100
00202000
ENDCHAR
STARTCHAR Ucircumflex
ENCODING 219
SWIDTH 637 0
DWIDTH 7 0
BBX 7 14 0 -1
BITMAP
00464000
00EFD000
06E7F600
0C507C00
02200100
6FF1DD50
1FF1FF20
0EF2FD00
0CF2FA00
0BF2F800
0AF4F600
08FAF400
03EBB100
00202000
ENDCHAR
STARTCHAR Udieresis
ENCODING 220
SWIDTH 637 0
DWIDTH 7 0
BBX 7 13 0 -1
BITMAP
05405710
1FF1FF30
1FF1FF40
03502100
6FF1DD50
1FF1FF20
0EF2FD00
0CF2FA00
0BF2F800
0AF4F600
08FAF400
03EBB100
00202000
ENDCHAR
STARTCHAR Yacute
ENCODING 221
SWIDTH 688 0
DWIDTH 8 0
BBX 8 13 0 -1
BITMAP
000004C0
00007FE4
00007300
00101000
4EF65EB4
02EDBF70
005FFB00
000EF700
0008F600
0004F500
0003F400
0001F300
00004000
ENDCHAR
STARTCHAR Thorn
ENCODING 222
SWIDTH 521 0
DWIDTH 6 0
BBX 6 12 0 -2
BITMAP
AEF200
AFE100
8FFFE2
6FFFF6
5FFFF5
3FE6F4
1FE1F2
0DFEC0
0BE320
0AF000
067000
011000
ENDCHAR
STARTCHAR germandbls
ENCODING 223
SWIDTH 546 0
DWIDTH 6 0
BBX 6 9 0 -1
BITMAP
2CEFE4
8FFFFA
8FFFFA
8FCBF6
6F99F1
4F9FA0
2F99E0
0E9BB0
055A50
ENDCHAR
STARTCHAR agrave
ENCODING 224
SWIDTH 479 0
DWIDTH 5 0
BBX 7 13 -1 -1
BITMAP
08800000
2CFA1000
00272000
00132310
07FFFC00
00DFF700
00CFF600
00CFF500
00CCF600
00E8F700
00ECF600
00EBF400
00C38300
ENDCHAR
STARTCHAR aacute
ENCODING 225
SWIDTH 479 0
DWIDTH 5 0
BBX 7 13 0 -1
BITMAP
00005B00
0007FE40
00073000
01323100
7FFFC000
0DFF7000
0CFF6000
0CFF5000
0CCF6000
0E8F7000
0ECF6000
0EBF4000
0C383000
ENDCHAR
STARTCHAR acircumflex
ENCODING 226
SWIDTH 479 0
DWIDTH 5 0
BBX 6 14 0 -1
BITMAP
026600
0AFF30
2F8EB0
8903E1
123241
7FFFC0
0DFF70
0CFF60
0CFF50
0CCF60
0E8F70
0ECF60
0EBF40
0C3830
ENDCHAR
STARTCHAR atilde
ENCODING 227
SWIDTH 479 0
DWIDTH 5 0
BBX 6 13 0 -1
BITMAP
130620
BEDFE1
2B9670
013231
7FFFC0
0DFF70
0CFF60
0CFF50
0CCF60
0E8F70
0ECF60
0EBF40
0C3830
ENDCHAR
STARTCHAR adieresis
ENCODING 228
SWIDTH 479 0
DWIDTH 5 0
BBX 6 13 0 -1
BITMAP
451473
CF5BF8
CF5BF8
243342
7FFFC0
0DFF70
0CFF60
0CFF50
0CCF60
0E8F70
0ECF60
0EBF40
0C3830
ENDCHAR
STARTCHAR aring
ENCODING 229
SWIDTH 479 0
DWIDTH 5 0
BBX 6 14 0 -1
BITMAP
003200
07BD30
076930
03A800
013231
7FFFC0
0DFF70
0CFF60
0CFF50
0CCF60
0E8F70
0ECF60
0EBF40
0C3830
ENDCHAR
STARTCHAR ae
ENCODING 230
SWIDTH 755 0
DWIDTH 8 0
BBX 8 10 0 -1
BITMAP
01323200
6FFFFFEA
0CFFFFF5
0BFFFFF1
0BFFE9C0
0BCFE620
0D8EFF50
0DDFD310
0DBEFF70
0B384430
ENDCHAR
STARTCHAR ccedilla
ENCODING 231
SWIDTH 534 0
DWIDTH 6 0
BBX 6 14 0 -5
BITMAP
001200
1AFFC2
8FFFF8
AFFFF9
8FEBF8
5FB3B5
3FA000
0EC8D0
09FEA0
015710
000C10
002D70
0004B0
001970
ENDCHAR
STARTCHAR egrave
ENCODING 232
SWIDTH 632 0
DWIDTH 7 0
BBX 7 12 0 -1
BITMAP
0C300000
6EE60000
00470000
6EFFFE50
1FFFFE00
0DFFFA00
0BFBA800
08F95000
05FFE000
04F73000
01FFF100
00355000
ENDCHAR
STARTCHAR eacute
ENCODING 233
SWIDTH 632 0
DWIDTH 7 0
BBX 8 12 0 -1
BITMAP
00000A60
0002CFB1
00046200
6EFFFE50
1FFFFE00
0DFFFA00
0BFBA800
08F95000
05FFE000
04F73000
01FFF100
00355000
ENDCHAR
STARTCHAR ecircumflex
ENCODING 234
SWIDTH 632 0
DWIDTH 7 0
BBX 7 14 0 -1
BITMAP
00563000
02FFC000
08E8F400
0D309A00
01010100
6EFFFE50
1FFFFE00
0DFFFA00
0BFBA800
08F95000
05FFE000
04F73000
01FFF100
00355000
ENDCHAR
STARTCHAR edieresis
ENCODING 235
SWIDTH 632 0
DWIDTH 7 0
BBX 7 13 0 -1
BITMAP
15415710
3FE2FF10
3FE2FF20
02312100
6EFFFE50
1FFFFE00
0DFFFA00
0BFBA800
08F95000
05FFE000
04F73000
01FFF100
00355000
ENDCHAR
STARTCHAR igrave
ENCODING 236
SWIDTH 411 0
DWIDTH 5 0
BBX 6 12 -1 -1
BITMAP
2C2000
9FD400
017700
07FFE1
00BF90
00AF70
00BF40
009F40
007F30
005F10
004E00
000200
ENDCHAR
STARTCHAR iacute
ENCODING 237
SWIDTH 411 0
DWIDTH 5 0
BBX 6 13 0 -1
BITMAP
0001C3
003DF9
005510
022000
7FFE10
0BF900
0AF700
0BF400
09F400
07F300
05F100
04E000
002000
ENDCHAR
STARTCHAR icircumflex
ENCODING 238
SWIDTH 411 0
DWIDTH 5 0
BBX 5 14 0 -1
BITMAP
046400
1EFD00
6E7F60
C407C0
122010
7FFE10
0BF900
0AF700
0BF400
09F400
07F300
05F100
04E000
002000
ENDCHAR
STARTCHAR idieresis
ENCODING 239
SWIDTH 411 0
DWIDTH 5 0
BBX 6 13 -1 -1
BITMAP
253266
6FB5FD
6FB5FE
123221
07FFE1
00BF90
00AF70
00BF40
009F40
007F30
005F10
004E00
000200
ENDCHAR
STARTCHAR eth
ENCODING 240
SWIDTH 530 0
DWIDTH 6 0
BBX 6 11 0 -2
BITMAP
000110
1BEFE3
0DFFFD
08FFFF
07FBDE
4AF9AA
15F6A7
01F8E4
00EEE1
005730
000200
ENDCHAR
STARTCHAR ntilde
ENCODING 241
SWIDTH 664 0
DWIDTH 7 0
BBX 8 13 0 -1
BITMAP
02207200
0CEDFD00
03B86600
01211000
8FF7AFD1
2FFC8F60
1FFFBF20
0EFFFF00
0DFFFD00
0AEEFB00
08D9F800
07C7F400
0353A000
ENDCHAR
STARTCHAR ograve
ENCODING 242
SWIDTH 545 0
DWIDTH 6 0
BBX 7 12 -1 -1
BITMAP
07900000
1CFB1000
00274000
01BFFB10
08FFFFA0
0AFFFFB0
07FCCFB0
05F68F90
03F68F50
00EABF10
009FFB00
00026400
ENDCHAR
STARTCHAR oacute
ENCODING 243
SWIDTH 545 0
DWIDTH 6 0
BBX 7 12 0 -1
BITMAP
00004C00
0006FE50
00184000
1BFFB100
8FFFFA00
AFFFFB00
7FCCFB00
5F68F900
3F68F500
0EABF100
09FFB000
00264000
ENDCHAR
STARTCHAR ocircumflex
ENCODING 244
SWIDTH 545 0
DWIDTH 6 0
BBX 6 14 0 -1
BITMAP
026600
09FF40
1E9DC0
6A02E3
101110
1BFFB1
8FFFFA
AFFFFB
7FCCFB
5F68F9
3F68F5
0EABF1
09FFB0
002640
ENDCHAR
STARTCHAR otilde
ENCODING 245
SWIDTH 545 0
DWIDTH 6 0
BBX 6 13 0 -1
BITMAP
130630
9ECFE1
1B9680
001100
1BFFB1
8FFFFA
AFFFFB
7FCCFB
5F68F9
3F68F5
0EABF1
09FFB0
002640
ENDCHAR
STARTCHAR odieresis
ENCODING 246
SWIDTH 545 0
DWIDTH 6 0
BBX 6 13 0 -1
BITMAP
352364
AF79F9
AF79FA
132211
1BFFB1
8FFFFA
AFFFFB
7FCCFB
5F68F9
3F68F5
0EABF1
09FFB0
002640
ENDCHAR
STARTCHAR oslash
ENCODING 248
SWIDTH 676 0
DWIDTH 7 0
BBX 7 10 0 -1
BITMAP
00110000
09FFB150
5FFFFC20
7FFFFA00
5FCCFA00
3FACF800
0F97F500
1DABF100
67FFB000
00264000
ENDCHAR
STARTCHAR ugrave
ENCODING 249
SWIDTH 708 0
DWIDTH 8 0
BBX 8 11 0 0
BITMAP
07900000
1CFB1000
00373000
5EF75DB5
0EF76FF2
0BF95FC0
09F96F80
07F88F60
05F99F40
01FDCF10
00ABDA00
ENDCHAR
STARTCHAR uacute
ENCODING 250
SWIDTH 708 0
DWIDTH 8 0
BBX 8 11 0 0
BITMAP
000004C0
00006FE5
00117400
5EF75DB5
0EF76FF2
0BF95FC0
09F96F80
07F88F60
05F99F40
01FDCF10
00ABDA00
ENDCHAR
STARTCHAR ucircumflex
ENCODING 251
SWIDTH 708 0
DWIDTH 8 0
BBX 8 13 0 0
BITMAP
00266000
009FF400
01E9DC00
06A02E30
01210100
5EF75DB5
0EF76FF2
0BF95FC0
09F96F80
07F88F60
05F99F40
01FDCF10
00ABDA00
ENDCHAR
STARTCHAR udieresis
ENCODING 252
SWIDTH 708 0
DWIDTH 8 0
BBX 8 12 0 0
BITMAP
03523640
0AF79F90
0AF79FA0
01421110
5EF75DB5
0EF76FF2
0BF95FC0
09F96F80
07F88F60
05F99F40
01FDCF10
00ABDA00
ENDCHAR
STARTCHAR yacute
ENCODING 253
SWIDTH 604 0
DWIDTH 7 0
BBX 7 13 0 -1
BITMAP
00001B40
0002CFA0
00046100
00101000
4ED1EB20
04FBF600
00BFB000
008F9000
004F7000
002F6000
002F6000
002F4000
00071000
ENDCHAR
STARTCHAR thorn
ENCODING 254
SWIDTH 498 0
DWIDTH 5 0
BBX 6 12 0 -2
BITMAP
AEE000
AFC100
8FFFC0
6FFFF2
5FFFF2
3FC9F1
1FC5E0
0DFFA0
0BE310
0AE000
067000
011000
ENDCHAR
STARTCHAR ydieresis
ENCODING 255
SWIDTH 604 0
DWIDTH 7 0
BBX 7 13 0 -1
BITMAP
05415720
0FF2DF50
0FF2DF60
02302100
4ED1EB20
04FBF600
00BFB000
008F9000
004F7000
002F6000
002F6000
002F4000
00071000
ENDCHAR
STARTCHAR Amacron
ENCODING 256
SWIDTH 494 0
DWIDTH 5 0
BBX 5 13 0 -2
BITMAP
187740
2BCB60
000000
4DED90
0CFF50
0CFF20
0CFF10
0CBF10
0D8F10
0DFF10
0CCD00
094900
010400
ENDCHAR
STARTCHAR amacron
ENCODING 257
SWIDTH 479 0
DWIDTH 5 0
BBX 6 12 0 -1
BITMAP
087750
1BCB70
013231
7FFFC0
0DFF70
0CFF60
0CFF50
0CCF60
0E8F70
0ECF60
0EBF40
0C3830
ENDCHAR
STARTCHAR Abreve
ENCODING 258
SWIDTH 494 0
DWIDTH 5 0
BBX 6 15 0 -2
BITMAP
042010
0B93F3
06EFD0
002540
000000
4DED90
0CFF50
0CFF20
0CFF10
0CBF10
0D8F10
0DFF10
0CCD00
094900
010400
ENDCHAR
STARTCHAR abreve
ENCODING 259
SWIDTH 479 0
DWIDTH 5 0
BBX 6 14 0 -1
BITMAP
042010
0B93F3
06EFD0
002540
013231
7FFFC0
0DFF70
0CFF60
0CFF50
0CCF60
0E8F70
0ECF60
0EBF40
0C3830
ENDCHAR
STARTCHAR Aogonek
ENCODING 260
SWIDTH 494 0
DWIDTH 5 0
BBX 6 13 0 -5
BITMAP
4DED90
0CFF50
0CFF20
0CFF10
0CBF10
0D8F10
0DFF10
0CCD00
096B00
018900
00AA00
007FD2
000791
ENDCHAR
STARTCHAR aogonek
ENCODING 261
SWIDTH 479 0
DWIDTH 5 0
BBX 6 13 0 -4
BITMAP
013231
7FFFC0
0DFF70
0CFF60
0CFF50
0CCF60
0E8F70
0ECF60
0EBF40
0C3D30
000F10
000E95
0006D9
ENDCHAR
STARTCHAR Cacute
ENCODING 262
SWIDTH 504 0
DWIDTH 6 0
BBX 6 13 0 -2
BITMAP
0001C3
003DF9
006710
1AFF90
8FFFF3
AFFFF4
9FCDF3
6F7591
4F6210
1F8CC0
0BFF60
017800
000100
ENDCHAR
STARTCHAR cacute
ENCODING 263
SWIDTH 534 0
DWIDTH 6 0
BBX 7 12 0 -1
BITMAP
0000A600
002CFB10
00482000
1AFFC200
8FFFF800
AFFFF900
8FEBF800
5FB3B500
3FA00000
0EC8D000
09FEA000
01571000
ENDCHAR
STARTCHAR Ccircumflex
ENCODING 264
SWIDTH 504 0
DWIDTH 6 0
BBX 6 15 0 -2
BITMAP
016700
07FF60
0DACD0
5B01D4
012210
1AFF90
8FFFF3
AFFFF4
9FCDF3
6F7591
4F6210
1F8CC0
0BFF60
017800
000100
ENDCHAR
STARTCHAR ccircumflex
ENCODING 265
SWIDTH 534 0
DWIDTH 6 0
BBX 6 14 0 -1
BITMAP
005620
02FFB0
09D8F3
1D30A9
011201
1AFFC2
8FFFF8
AFFFF9
8FEBF8
5FB3B5
3FA000
0EC8D0
09FEA0
015710
ENDCHAR
STARTCHAR Cdotaccent
ENCODING 266
SWIDTH 504 0
DWIDTH 6 0
BBX 6 14 0 -2
BITMAP
06CD40
06FF50
05FF50
028720
1AFF90
8FFFF3
AFFFF4
9FCDF3
6F7591
4F6210
1F8CC0
0BFF60
017800
000100
ENDCHAR
STARTCHAR cdotaccent
ENCODING 267
SWIDTH 534 0
DWIDTH 6 0
BBX 6 13 0 -1
BITMAP
03BD70
03FF90
02FF90
018730
1AFFC2
8FFFF8
AFFFF9
8FEBF8
5FB3B5
3FA000
0EC8D0
09FEA0
015710
ENDCHAR
STARTCHAR Ccaron
ENCODING 268
SWIDTH 504 0
DWIDTH 6 0
BBX 6 15 0 -2
BITMAP
360070
6F38F2
0ECF90
08FF20
014400
1AFF90
8FFFF3
AFFFF4
9FCDF3
6F7591
4F6210
1F8CC0
0BFF60
017800
000100
ENDCHAR
STARTCHAR ccaron
ENCODING 269
SWIDTH 534 0
DWIDTH 6 0
BBX 6 14 0 -1
BITMAP
181052
1E92F8
08FCE1
02FF80
003510
1AFFC2
8FFFF8
AFFFF9
8FEBF8
5FB3B5
3FA000
0EC8D0
09FEA0
015710
ENDCHAR
STARTCHAR Dcaron
ENCODING 270
SWIDTH 522 0
DWIDTH 6 0
BBX 6 15 0 -2
BITMAP
071043
0DB1EA
06FCF2
01EF90
002210
5CEFB1
4FFFF7
0FFFF8
0DF9F6
0CD1F3
0AD2F0
08E8D0
07CFA0
051910
000200
ENDCHAR
STARTCHAR dcaron
ENCODING 271
SWIDTH 522 0
DWIDTH 6 0
BBX 6 15 0 -2
BITMAP
071043
0DB1EA
06FCF2
01EF90
002210
5CEFB1
4FFFF7
0FFFF8
0DF9F6
0CD1F3
0AD2F0
08E8D0
07CFA0
051910
000200
ENDCHAR
STARTCHAR Eth.dup2
ENCODING 272
SWIDTH 530 0
DWIDTH 6 0
BBX 6 11 0 -2
BITMAP
000110
1BEFE3
0DFFFD
08FFFF
07FBDE
4AF9AA
15F6A7
01F8E4
00EEE1
005730
000200
ENDCHAR
STARTCHAR Emacron
ENCODING 274
SWIDTH 570 0
DWIDTH 6 0
BBX 6 12 0 -1
BITMAP
068770
07CBB0
001100
6FFFF9
1FFFF6
0EFFF2
0DE790
0CEA30
0AFD40
08D630
06CE60
023220
ENDCHAR
STARTCHAR emacron
ENCODING 275
SWIDTH 632 0
DWIDTH 7 0
BBX 7 12 0 -1
BITMAP
04877200
05CBB200
00010000
6EFFFE50
1FFFFE00
0DFFFA00
0BFBA800
08F95000
05FFE000
04F73000
01FFF100
00355000
ENDCHAR
STARTCHAR Ebreve
ENCODING 276
SWIDTH 570 0
DWIDTH 6 0
BBX 6 14 0 -1
BITMAP
024010
05E1CA
01DFF4
001380
001100
6FFFF9
1FFFF6
0EFFF2
0DE790
0CEA30
0AFD40
08D630
06CE60
023220
ENDCHAR
STARTCHAR ebreve
ENCODING 277
SWIDTH 632 0
DWIDTH 7 0
BBX 7 14 0 -1
BITMAP
00420100
00C84F20
007EFC00
00026400
00010000
6EFFFE50
1FFFFE00
0DFFFA00
0BFBA800
08F95000
05FFE000
04F73000
01FFF100
00355000
ENDCHAR
STARTCHAR Edotaccent
ENCODING 278
SWIDTH 570 0
DWIDTH 6 0
BBX 6 13 0 -1
BITMAP
04BD60
04FF80
03FF80
018530
6FFFF9
1FFFF6
0EFFF2
0DE790
0CEA30
0AFD40
08D630
06CE60
023220
ENDCHAR
STARTCHAR edotaccent
ENCODING 279
SWIDTH 632 0
DWIDTH 7 0
BBX 7 13 0 -1
BITMAP
01BDA000
00FFC000
00EFC000
00764000
6EFFFE50
1FFFFE00
0DFFFA00
0BFBA800
08F95000
05FFE000
04F73000
01FFF100
00355000
ENDCHAR
STARTCHAR Eogonek
ENCODING 280
SWIDTH 513 0
DWIDTH 6 0
BBX 6 13 0 -4
BITMAP
001100
6FFFF9
1FFFF6
0EFFF2
0DE790
0CEA30
0AFD40
08D630
07EF60
022E20
004D00
001FD7
000384
ENDCHAR
STARTCHAR eogonek
ENCODING 281
SWIDTH 632 0
DWIDTH 7 0
BBX 7 13 0 -4
BITMAP
00010000
6EFFFE50
1FFFFE00
0DFFFA00
0BFBA800
08F95000
05FFE000
04F73000
01FFF100
003A9000
000A8000
0007FC20
00006910
ENDCHAR
STARTCHAR Ecaron
ENCODING 282
SWIDTH 570 0
DWIDTH 6 0
BBX 6 14 0 -1
BITMAP
071043
0DB1EA
06FCF2
01EF90
003310
6FFFF9
1FFFF6
0EFFF2
0DE790
0CEA30
0AFD40
08D630
06CE60
023220
ENDCHAR
STARTCHAR ecaron
ENCODING 283
SWIDTH 632 0
DWIDTH 7 0
BBX 7 14 0 -1
BITMAP
03600700
05F47F30
00DDFA00
007FF200
00133000
6EFFFE50
1FFFFE00
0DFFFA00
0BFBA800
08F95000
05FFE000
04F73000
01FFF100
00355000
ENDCHAR
STARTCHAR Gcircumflex
ENCODING 284
SWIDTH 499 0
DWIDTH 5 0
BBX 6 14 0 -1
BITMAP
036500
0CFF20
3F7E90
9704E1
100010
2BFD50
8FFFF2
9FFFF3
7FAEF1
5F48B0
3F6DC0
1F7BF0
0CFFC0
036920
ENDCHAR
STARTCHAR gcircumflex
ENCODING 285
SWIDTH 546 0
DWIDTH 6 0
BBX 6 14 0 -1
BITMAP
026600
08FF50
1E9DC0
6A02E3
000010
2CFFA1
9FFFF8
9FFFFC
7FCDFA
5F75D7
1F8993
0DB7F5
0AFDF4
02BA91
ENDCHAR
STARTCHAR Gbreve
ENCODING 286
SWIDTH 499 0
DWIDTH 5 0
BBX 6 14 0 -1
BITMAP
141000
1F57E0
0AFF90
002730
000000
2BFD50
8FFFF2
9FFFF3
7FAEF1
5F48B0
3F6DC0
1F7BF0
0CFFC0
036920
ENDCHAR
STARTCHAR gbreve
ENCODING 287
SWIDTH 546 0
DWIDTH 6 0
BBX 6 14 0 -1
BITMAP
042010
0B93F3
06EFD0
002540
000000
2CFFA1
9FFFF8
9FFFFC
7FCDFA
5F75D7
1F8993
0DB7F5
0AFDF4
02BA91
ENDCHAR
STARTCHAR Gdotaccent
ENCODING 288
SWIDTH 499 0
DWIDTH 5 0
BBX 6 13 0 -1
BITMAP
09CD10
0AFF10
09FF10
046500
2BFD50
8FFFF2
9FFFF3
7FAEF1
5F48B0
3F6DC0
1F7BF0
0CFFC0
036920
ENDCHAR
STARTCHAR gdotaccent
ENCODING 289
SWIDTH 546 0
DWIDTH 6 0
BBX 6 13 0 -1
BITMAP
06CD40
07FF50
06FF50
037510
2CFFA1
9FFFF8
9FFFFC
7FCDFA
5F75D7
1F8993
0DB7F5
0AFDF4
02BA91
ENDCHAR
STARTCHAR Gcommaaccent
ENCODING 290
SWIDTH 499 0
DWIDTH 5 0
BBX 6 15 0 -7
BITMAP
2BFD50
8FFFF2
9FFFF3
7FAEF1
5F48B0
3F6DC0
1F7BF0
0CFFC0
036920
000000
02BA40
03FF60
03EF60
000C50
000E30
ENDCHAR
STARTCHAR Hcircumflex
ENCODING 292
SWIDTH 726 0
DWIDTH 8 0
BBX 8 16 0 -3
BITMAP
00266000
009FF400
01E9DC00
07A03E20
01011200
4BF67FE6
1FF55FE1
0DF48FA0
0AF48F70
08FBDF30
06FCEF10
04F5CE00
03F5DC00
02306600
00002000
00001000
ENDCHAR
STARTCHAR hcircumflex
ENCODING 293
SWIDTH 730 0
DWIDTH 8 0
BBX 8 14 0 -1
BITMAP
00266000
008FF500
01E9DC00
06A02E30
00221310
4DF75FF7
0EF64FF1
0DF56FB0
0AF56F80
07FDEF40
05FBDF20
04F6BF00
03F6CD00
01204500
ENDCHAR
STARTCHAR hbar
ENCODING 295
SWIDTH 704 0
DWIDTH 8 0
BBX 8 10 0 -1
BITMAP
00112210
4DF5AFF3
0EFBDFB0
0DFFFF70
0AF6BF40
07FCEE00
05FBDE00
04F6BF00
03F6CD00
01204500
ENDCHAR
STARTCHAR Itilde
ENCODING 296
SWIDTH 401 0
DWIDTH 4 0
BBX 6 13 -1 -1
BITMAP
040450
6FCFF4
09B591
012220
08FFD0
00DF80
00BF80
00CF50
00AF50
009F30
007F30
005D20
001310
ENDCHAR
STARTCHAR itilde
ENCODING 297
SWIDTH 411 0
DWIDTH 5 0
BBX 6 13 -1 -1
BITMAP
040350
5FCFF5
08B591
002200
07FFE1
00BF90
00AF70
00BF40
009F40
007F30
005F10
004E00
000200
ENDCHAR
STARTCHAR Imacron
ENCODING 298
SWIDTH 401 0
DWIDTH 4 0
BBX 4 12 0 -1
BITMAP
6877
7CBB
1222
8FFD
0DF8
0BF8
0CF5
0AF5
09F3
07F3
05D2
0131
ENDCHAR
STARTCHAR imacron
ENCODING 299
SWIDTH 411 0
DWIDTH 5 0
BBX 5 12 0 -1
BITMAP
587700
7CBB00
022000
7FFE10
0BF900
0AF700
0BF400
09F400
07F300
05F100
04E000
002000
ENDCHAR
STARTCHAR Ibreve
ENCODING 300
SWIDTH 401 0
DWIDTH 4 0
BBX 5 14 0 -1
BITMAP
330100
7C1E70
3DFF20
024600
122200
8FFD00
0DF800
0BF800
0CF500
0AF500
09F300
07F300
05D200
013100
ENDCHAR
STARTCHAR ibreve
ENCODING 301
SWIDTH 411 0
DWIDTH 5 0
BBX 5 14 0 -1
BITMAP
330100
8C1E60
4DFE20
024500
022000
7FFE10
0BF900
0AF700
0BF400
09F400
07F300
05F100
04E000
002000
ENDCHAR
STARTCHAR Iogonek
ENCODING 302
SWIDTH 401 0
DWIDTH 4 0
BBX 5 14 0 -5
BITMAP
122200
8FFD00
0DF800
0BF800
0CF500
0BF500
09F300
07F300
05F200
07B100
0A6000
0BA200
06FF10
002400
ENDCHAR
STARTCHAR iogonek
ENCODING 303
SWIDTH 412 0
DWIDTH 5 0
BBX 5 14 0 -5
BITMAP
022000
7FFE10
0BF900
0AF700
0BF400
09F400
07F300
05F100
05F100
07B000
0A7000
0AC510
03EF20
000100
ENDCHAR
STARTCHAR Idotaccent
ENCODING 304
SWIDTH 401 0
DWIDTH 4 0
BBX 4 13 0 -1
BITMAP
4BD6
4FF8
3FF8
2964
8FFD
0DF8
0BF8
0CF5
0AF5
09F3
07F3
05D2
0131
ENDCHAR
STARTCHAR dotlessi
ENCODING 305
SWIDTH 411 0
DWIDTH 5 0
BBX 5 10 0 -1
BITMAP
022000
7FFE10
0BF900
0AF700
0BF400
09F400
07F300
05F100
04E000
002000
ENDCHAR
STARTCHAR IJ
ENCODING 306
SWIDTH 908 0
DWIDTH 10 0
BBX 10 10 0 -1
BITMAP
1222000000
8FFE103FF5
0DFB000EF2
0BFA000EC0
0CF8000FB0
0AF7000F90
09F5293F70
06F52F8F50
04D50CEE10
0131003200
ENDCHAR
STARTCHAR ij
ENCODING 307
SWIDTH 901 0
DWIDTH 10 0
BBX 10 10 0 -1
BITMAP
0221001100
7FFF109FE4
0BFB004FF2
0AF9002FE0
0BF7002FD0
09F6001FC0
06F5293FA0
04F41F8F90
03E30AFF50
0021001310
ENDCHAR
STARTCHAR Jcircumflex
ENCODING 308
SWIDTH 455 0
DWIDTH 5 0
BBX 7 14 -1 -1
BITMAP
00067100
006FF700
00CBBE10
03C11C60
00100100
003FF600
000DF200
000ED000
000FC000
000EA000
193F7000
2F8F6000
0CEE1000
00220000
ENDCHAR
STARTCHAR jcircumflex
ENCODING 309
SWIDTH 458 0
DWIDTH 5 0
BBX 7 14 -1 -1
BITMAP
00067100
005FF700
00CBAE10
03C11C60
00220100
007FE600
002FF400
000EF100
000EF100
000DF000
194DD000
0FADB000
09FF7000
00132000
ENDCHAR
STARTCHAR Kcommaaccent
ENCODING 310
SWIDTH 580 0
DWIDTH 6 0
BBX 6 15 0 -6
BITMAP
011010
7FE4FA
0DF7C1
09FD80
07FF60
05FF70
03FF80
02FAB0
01F4E0
002230
008A80
00BFD0
00BFD0
0005B0
000890
ENDCHAR
STARTCHAR kcommaaccent
ENCODING 311
SWIDTH 636 0
DWIDTH 7 0
BBX 7 15 0 -6
BITMAP
00011100
6EE6EF50
0EF7F500
07FAF000
05FDA000
04FF6000
01FFA000
00E9E100
00D5D500
00213200
004BA100
007FF300
007EF300
0001F100
0003E000
ENDCHAR
STARTCHAR kgreenlandic
ENCODING 312
SWIDTH 636 0
DWIDTH 7 0
BBX 7 10 0 -1
BITMAP
00011100
6EE6EF50
0EF7F500
07FAF000
05FDA000
04FF6000
01FFA000
00E9E100
00D5D500
00213200
ENDCHAR
STARTCHAR Lacute
ENCODING 313
SWIDTH 416 0
DWIDTH 5 0
BBX 6 12 0 -1
BITMAP
0001C3
003DF9
116610
7FF600
3FF000
1FF000
0EE000
0DF000
0BE000
0AF860
07FFB0
014450
ENDCHAR
STARTCHAR lacute
ENCODING 314
SWIDTH 438 0
DWIDTH 5 0
BBX 7 13 0 -1
BITMAP
0001A500
002CFB10
00361000
01122000
5FFB1000
0EF50000
0DF40000
0BF40000
07F40000
06F30000
05FA7100
03FED000
01326000
ENDCHAR
STARTCHAR Lcommaaccent
ENCODING 315
SWIDTH 416 0
DWIDTH 5 0
BBX 5 15 0 -6
BITMAP
111100
7FF600
3FF000
1FF000
0EE000
0DF000
0BE000
0AF860
07FFB0
014450
07A800
0BFD00
0AED00
005C00
007A00
ENDCHAR
STARTCHAR lcommaaccent
ENCODING 316
SWIDTH 438 0
DWIDTH 5 0
BBX 6 15 0 -6
BITMAP
011220
5FFB10
0EF500
0DF400
0BF400
07F400
06F300
05FA71
03FED0
013260
05BA00
08FF10
08EF10
002E00
004C00
ENDCHAR
STARTCHAR Lcaron
ENCODING 317
SWIDTH 714 0
DWIDTH 8 0
BBX 8 10 0 -1
BITMAP
11110000
7FF64BA4
3FF06FF6
1FF06FF6
0EE037D6
0DF000D4
0BE00081
0AF86000
07FFB000
01445000
ENDCHAR
STARTCHAR lcaron
ENCODING 318
SWIDTH 782 0
DWIDTH 9 0
BBX 9 10 0 -1
BITMAP
0112200000
5FFB17BA10
0EF50AFF30
0DF40AFF30
0BF4057F20
07F4001F00
06F3002800
05FA710000
03FED00000
0132600000
ENDCHAR
STARTCHAR Ldotaccent
ENCODING 319
SWIDTH 567 0
DWIDTH 6 0
BBX 7 10 0 -1
BITMAP
11110000
7FF60000
3FF25750
1FF2FFA0
0EE0FFB0
0DF0CB80
0BE00000
0AF86000
07FFB000
01445000
ENDCHAR
STARTCHAR ldot
ENCODING 320
SWIDTH 660 0
DWIDTH 7 0
BBX 8 10 0 -1
BITMAP
01122000
5FFB1000
0EF50000
0DF44BD7
0BF43FF8
07F42FF8
06F31753
05FA7100
03FED000
01326000
ENDCHAR
STARTCHAR Lslash
ENCODING 321
SWIDTH 428 0
DWIDTH 5 0
BBX 6 10 0 -1
BITMAP
111100
4FF600
1FE000
0EF8A0
5EFFE1
AFF930
3BE000
07F860
05FFB0
005450
ENDCHAR
STARTCHAR lslash
ENCODING 322
SWIDTH 457 0
DWIDTH 5 0
BBX 6 10 0 -1
BITMAP
011220
3FFC10
0DF710
0BFCE3
3DFFF6
8FFB30
2AF500
03FB71
01FEE0
004270
ENDCHAR
STARTCHAR Nacute
ENCODING 323
SWIDTH 610 0
DWIDTH 7 0
BBX 8 13 0 -2
BITMAP
00000A50
0002CFB1
00146200
6EF4FD20
1FF7FA00
0FFCF800
0DFFF600
0BFFF400
08EFF300
06DBF200
05E6F100
0483A000
02210000
ENDCHAR
STARTCHAR nacute
ENCODING 324
SWIDTH 664 0
DWIDTH 7 0
BBX 8 12 0 -1
BITMAP
000006A0
00008FD3
01218300
8FF7AFD1
2FFC8F60
1FFFBF20
0EFFFF00
0DFFFD00
0AEEFB00
08D9F800
07C7F400
0353A000
ENDCHAR
STARTCHAR Ncommaaccent
ENCODING 325
SWIDTH 610 0
DWIDTH 7 0
BBX 7 16 0 -7
BITMAP
00111000
6EF4FD20
1FF7FA00
0FFCF800
0DFFF600
0BFFF400
08EFF300
06DBF200
05E6F100
0483A000
02210000
004BA100
007FF200
007EF200
0001F100
0003E000
ENDCHAR
STARTCHAR ncommaaccent
ENCODING 326
SWIDTH 664 0
DWIDTH 7 0
BBX 8 16 0 -7
BITMAP
01211000
8FF7AFD1
2FFC8F60
1FFFBF20
0EFFFF00
0DFFFD00
0AEEFB00
08D9F800
07C7F400
0353A000
00000000
001BA400
003FF700
003EF700
0000B500
0000E300
ENDCHAR
STARTCHAR Ncaron
ENCODING 327
SWIDTH 610 0
DWIDTH 7 0
BBX 7 15 0 -2
BITMAP
06303500
0BD1DC00
04FCF400
00DFB000
00232000
6EF4FD20
1FF7FA00
0FFCF800
0DFFF600
0BFFF400
08EFF300
06DBF200
05E6F100
0483A000
02210000
ENDCHAR
STARTCHAR ncaron
ENCODING 328
SWIDTH 664 0
DWIDTH 7 0
BBX 8 14 0 -1
BITMAP
02700700
04F46F30
00DDEB00
006FF300
01233000
8FF7AFD1
2FFC8F60
1FFFBF20
0EFFFF00
0DFFFD00
0AEEFB00
08D9F800
07C7F400
0353A000
ENDCHAR
STARTCHAR Omacron
ENCODING 332
SWIDTH 504 0
DWIDTH 6 0
BBX 6 12 0 -1
BITMAP
287740
2BCB60
001000
1AFE70
8FFFF2
9FFFF3
8FAEF3
5F4BF3
3F5BE1
1F8DC0
0CFF60
005820
ENDCHAR
STARTCHAR omacron
ENCODING 333
SWIDTH 545 0
DWIDTH 6 0
BBX 6 12 0 -1
BITMAP
087760
0ACB80
001100
1BFFB1
8FFFFA
AFFFFB
7FCCFB
5F68F9
3F68F5
0EABF1
09FFB0
002640
ENDCHAR
STARTCHAR Obreve
ENCODING 334
SWIDTH 504 0
DWIDTH 6 0
BBX 6 14 0 -1
BITMAP
041000
0E66F1
08FFA0
002630
001000
1AFE70
8FFFF2
9FFFF3
8FAEF3
5F4BF3
3F5BE1
1F8DC0
0CFF60
005820
ENDCHAR
STARTCHAR obreve
ENCODING 335
SWIDTH 545 0
DWIDTH 6 0
BBX 6 14 0 -1
BITMAP
042010
0C84F2
07EFC0
002640
001100
1BFFB1
8FFFFA
AFFFFB
7FCCFB
5F68F9
3F68F5
0EABF1
09FFB0
002640
ENDCHAR
STARTCHAR Ohungarumlaut
ENCODING 336
SWIDTH 504 0
DWIDTH 6 0
BBX 6 14 0 -1
BITMAP
020030
0CB5E6
3F4AB0
961C10
101100
1AFE70
8FFFF2
9FFFF3
8FAEF3
5F4BF3
3F5BE1
1F8DC0
0CFF60
005820
ENDCHAR
STARTCHAR ohungarumlaut
ENCODING 337
SWIDTH 545 0
DWIDTH 6 0
BBX 6 14 0 -1
BITMAP
011030
08E2F9
0E87D2
590B20
101200
1BFFB1
8FFFFA
AFFFFB
7FCCFB
5F68F9
3F68F5
0EABF1
09FFB0
002640
ENDCHAR
STARTCHAR OE
ENCODING 338
SWIDTH 789 0
DWIDTH 9 0
BBX 9 11 0 -2
BITMAP
0010110000
1AFFFFFD20
8FFFFFFB00
AFFFFFF700
8FAEF99300
6F4BFB7000
4F5BFD9000
1F8EF85000
0CFFCFB000
0069473000
0012122000
ENDCHAR
STARTCHAR oe
ENCODING 339
SWIDTH 778 0
DWIDTH 9 0
BBX 9 10 0 -1
BITMAP
0011000000
1BFFFFFC10
8FFFFFF800
AFFFFFF400
7FBDFCD200
4F5AF83000
1F59FF8000
0E8DF52000
09FFFFA000
0027454000
ENDCHAR
STARTCHAR Racute
ENCODING 340
SWIDTH 599 0
DWIDTH 7 0
BBX 7 12 0 -1
BITMAP
00001C30
0003DF90
00166100
6DFFF800
1DFFFF50
09FFFF50
08F7BF40
05F9CF10
02FFFA00
00F7F800
00E7D900
00524600
ENDCHAR
STARTCHAR racute
ENCODING 341
SWIDTH 616 0
DWIDTH 7 0
BBX 8 12 0 -1
BITMAP
00001A50
0002CFB1
00146100
6DFFFA20
0DFFFF80
09FFFF70
07F9BF40
06FABF10
04FFFB00
03F9F500
03F7F500
01617500
ENDCHAR
STARTCHAR Rcommaaccent
ENCODING 342
SWIDTH 599 0
DWIDTH 7 0
BBX 7 15 0 -6
BITMAP
00110000
6DFFF800
1DFFFF50
09FFFF50
08F7BF40
05F9CF10
02FFFA00
00F7F800
00E7D900
00524600
007A9000
00AFE000
00AEE000
0004C000
0006A000
ENDCHAR
STARTCHAR rcommaaccent
ENCODING 343
SWIDTH 616 0
DWIDTH 7 0
BBX 7 15 0 -6
BITMAP
00110000
6DFFFA20
0DFFFF80
09FFFF70
07F9BF40
06FABF10
04FFFB00
03F9F500
03F7F500
01617500
005BA000
008FF100
008EF100
0002F000
0004C000
ENDCHAR
STARTCHAR Rcaron
ENCODING 344
SWIDTH 599 0
DWIDTH 7 0
BBX 7 14 0 -1
BITMAP
04501700
07F29E10
01FCF800
009FE100
00242000
6DFFF800
1DFFFF50
09FFFF50
08F7BF40
05F9CF10
02FFFA00
00F7F800
00E7D900
00524600
ENDCHAR
STARTCHAR rcaron
ENCODING 345
SWIDTH 616 0
DWIDTH 7 0
BBX 7 14 0 -1
BITMAP
04501600
08E1AE10
02FCF700
00AFE100
00232000
6DFFFA20
0DFFFF80
09FFFF70
07F9BF40
06FABF10
04FFFB00
03F9F500
03F7F500
01617500
ENDCHAR
STARTCHAR Sacute
ENCODING 346
SWIDTH 504 0
DWIDTH 6 0
BBX 7 12 0 -1
BITMAP
00007900
0009FD20
00183000
09EF8000
6FFFF400
AFFFF400
AFAEF300
7FD83100
08EFB000
3A5DD000
1EFF7000
03551000
ENDCHAR
STARTCHAR sacute
ENCODING 347
SWIDTH 481 0
DWIDTH 5 0
BBX 7 12 0 -1
BITMAP
00008800
001AFC20
00372000
0AFF6000
6FFFF000
AFFFE000
AFAFD000
7FB75000
1AFF3000
285F6000
1EEF2000
05750000
ENDCHAR
STARTCHAR Scircumflex
ENCODING 348
SWIDTH 504 0
DWIDTH 6 0
BBX 6 14 0 -1
BITMAP
006710
05FF70
0CBAE1
3C11C6
010110
09EF80
6FFFF4
AFFFF4
AFAEF3
7FD831
08EFB0
3A5DD0
1EFF70
035510
ENDCHAR
STARTCHAR scircumflex
ENCODING 349
SWIDTH 481 0
DWIDTH 5 0
BBX 6 14 0 -1
BITMAP
016600
08FF50
1E9CD0
6B02E4
011010
0AFF60
6FFFF0
AFFFE0
AFAFD0
7FB750
1AFF30
285F60
1EEF20
057500
ENDCHAR
STARTCHAR Scedilla
ENCODING 350
SWIDTH 504 0
DWIDTH 6 0
BBX 6 13 0 -4
BITMAP
000100
09EF80
6FFFF4
AFFFF4
AFAEF3
7FD831
08EFB0
3A5DD0
1EFF70
03AC10
00AA20
001A40
006920
ENDCHAR
STARTCHAR scedilla
ENCODING 351
SWIDTH 481 0
DWIDTH 5 0
BBX 5 13 0 -4
BITMAP
001000
0AFF60
6FFFF0
AFFFE0
AFAFD0
7FB750
1AFF30
285F60
1EEF20
05F700
01E800
002D00
009800
ENDCHAR
STARTCHAR Scaron
ENCODING 352
SWIDTH 503 0
DWIDTH 6 0
BBX 6 15 0 -1
BITMAP
4901A1
4F59E1
0CEF80
06EE10
000000
000100
09EF80
6FFFF4
AFFFF3
AFAEF3
7FD831
08EFB0
3A5DD0
1EFF70
035510
ENDCHAR
STARTCHAR scaron
ENCODING 353
SWIDTH 479 0
DWIDTH 5 0
BBX 6 15 0 -1
BITMAP
560280
7F2BE1
1EDF70
08FE10
001100
001000
0AFE60
6FFFF0
AFFFE0
AFAFC0
7FB750
1AFF30
285F60
1EEF20
057500
ENDCHAR
STARTCHAR Tcommaaccent
ENCODING 354
SWIDTH 622 0
DWIDTH 7 0
BBX 7 14 0 -5
BITMAP
00110000
5EFFFC40
1FFFFF00
0DFFFE00
0BDFCA00
004F7000
004F7000
004F5000
002F6000
003D4000
001C1000
001E7000
0003C000
00198000
ENDCHAR
STARTCHAR tcommaaccent
ENCODING 355
SWIDTH 683 0
DWIDTH 8 0
BBX 7 14 0 -5
BITMAP
00222100
7EFFFFD0
2FFFFF80
0CFFFF70
0ABFEA50
000EE000
000DE000
000CE000
000AD000
0009C000
00059000
0009A300
0001A400
00069200
ENDCHAR
STARTCHAR Tcaron
ENCODING 356
SWIDTH 622 0
DWIDTH 7 0
BBX 7 15 0 -2
BITMAP
07203400
0BC1DB00
05FCF400
00DFB000
00232000
5EFFFC40
1FFFFF00
0DFFFE00
0BDFCA00
004F7000
004F7000
004F5000
002F6000
003D4000
00100000
ENDCHAR
STARTCHAR tcaron
ENCODING 357
SWIDTH 622 0
DWIDTH 7 0
BBX 7 15 0 -2
BITMAP
04501700
08E2AE10
02FCF700
00AFE100
00232000
5EFFFC40
1FFFFF00
0DFFFE00
0BDFCA00
004F7000
004F7000
004F5000
002F6000
003D4000
00100000
ENDCHAR
STARTCHAR Utilde
ENCODING 360
SWIDTH 637 0
DWIDTH 7 0
BBX 7 13 0 -1
BITMAP
03117100
1EDEFA00
05C78400
01200000
6FF1DD50
1FF1FF20
0EF2FD00
0CF2FA00
0BF2F800
0AF4F600
08FAF400
03EBB100
00202000
ENDCHAR
STARTCHAR utilde
ENCODING 361
SWIDTH 708 0
DWIDTH 8 0
BBX 8 12 0 0
BITMAP
01306300
09ECFE10
01B96800
00110000
5EF75DB5
0EF76FF2
0BF95FC0
09F96F80
07F88F60
05F99F40
01FDCF10
00ABDA00
ENDCHAR
STARTCHAR Umacron
ENCODING 362
SWIDTH 637 0
DWIDTH 7 0
BBX 7 12 0 -1
BITMAP
03877300
04BBB400
01200000
6FF1DD50
1FF1FF20
0EF2FD00
0CF2FA00
0BF2F800
0AF4F600
08FAF400
03EBB100
00202000
ENDCHAR
STARTCHAR umacron
ENCODING 363
SWIDTH 708 0
DWIDTH 8 0
BBX 8 11 0 0
BITMAP
00877600
00ACB800
00110000
5EF75DB5
0EF76FF2
0BF95FC0
09F96F80
07F88F60
05F99F40
01FDCF10
00ABDA00
ENDCHAR
STARTCHAR Ubreve
ENCODING 364
SWIDTH 637 0
DWIDTH 7 0
BBX 7 14 0 -1
BITMAP
01400000
01F48D00
00AFF800
00027200
01200000
6FF1DD50
1FF1FF20
0EF2FD00
0CF2FA00
0BF2F800
0AF4F600
08FAF400
03EBB100
00202000
ENDCHAR
STARTCHAR ubreve
ENCODING 365
SWIDTH 708 0
DWIDTH 8 0
BBX 8 13 0 0
BITMAP
00420100
00AA2F50
005EFE10
00025500
00110000
5EF75DB5
0EF76FF2
0BF95FC0
09F96F80
07F88F60
05F99F40
01FDCF10
00ABDA00
ENDCHAR
STARTCHAR Uring
ENCODING 366
SWIDTH 637 0
DWIDTH 7 0
BBX 7 14 0 -1
BITMAP
00141000
00AAD100
00A3B100
004B5000
01200000
6FF1DD50
1FF1FF20
0EF2FD00
0CF2FA00
0BF2F800
0AF4F600
08FAF400
03EBB100
00202000
ENDCHAR
STARTCHAR uring
ENCODING 367
SWIDTH 708 0
DWIDTH 8 0
BBX 8 13 0 0
BITMAP
00024000
003DC700
002A5700
0009B100
00110000
5EF75DB5
0EF76FF2
0BF95FC0
09F96F80
07F88F60
05F99F40
01FDCF10
00ABDA00
ENDCHAR
STARTCHAR Uhungarumlaut
ENCODING 368
SWIDTH 637 0
DWIDTH 7 0
BBX 7 14 0 -1
BITMAP
00301200
00D97E50
05E3CA00
0B43B000
02201000
6FF1DD50
1FF1FF20
0EF2FD00
0CF2FA00
0BF2F800
0AF4F600
08FAF400
03EBB100
00202000
ENDCHAR
STARTCHAR uhungarumlaut
ENCODING 369
SWIDTH 708 0
DWIDTH 8 0
BBX 8 13 0 0
BITMAP
00120300
008E2EA0
00E87E20
05A0B300
01111000
5EF75DB5
0EF76FF2
0BF95FC0
09F96F80
07F88F60
05F99F40
01FDCF10
00ABDA00
ENDCHAR
STARTCHAR Uogonek
ENCODING 370
SWIDTH 637 0
DWIDTH 7 0
BBX 7 13 0 -4
BITMAP
01200000
6FF1DD50
1FF1FF20
0EF2FD00
0CF2FA00
0BF2F800
0AF4F600
08FAF400
03EFF100
002C7000
000BB500
0004EF00
00000100
ENDCHAR
STARTCHAR uogonek
ENCODING 371
SWIDTH 662 0
DWIDTH 7 0
BBX 8 12 0 -3
BITMAP
00110000
5EF76DB5
1FF77FF2
0CF86FB0
09F97F70
07F78F50
06F99F30
01FCDF10
00AFFA00
000F2000
000E9400
0007EC00
ENDCHAR
STARTCHAR Wcircumflex
ENCODING 372
SWIDTH 777 0
DWIDTH 9 0
BBX 9 13 0 0
BITMAP
0006620000
003FFA0000
00AD9F2000
01D20B8000
0010412000
5BE4E2FC20
1CF8F9F600
05FDFFC000
02FFFF7000
00AFFF5000
006FDF2000
002F9D0000
000B790000
ENDCHAR
STARTCHAR wcircumflex
ENCODING 373
SWIDTH 704 0
DWIDTH 8 0
BBX 8 13 0 0
BITMAP
00166000
008FF500
01E9CC00
06B02E30
00111100
6DA879B4
0CDABCD0
07FDFF70
03FFFF20
00CFFF10
008FEE00
004FAC00
000A7A00
ENDCHAR
STARTCHAR Ycircumflex
ENCODING 374
SWIDTH 688 0
DWIDTH 8 0
BBX 8 14 0 -1
BITMAP
00266000
009FF300
01F8DB00
07903E20
01201100
4EF65EB4
02EDBF70
005FFB00
000EF700
0008F600
0004F500
0003F400
0001F300
00004000
ENDCHAR
STARTCHAR ycircumflex
ENCODING 375
SWIDTH 604 0
DWIDTH 7 0
BBX 7 14 0 -1
BITMAP
00662000
03FFA000
09D9F300
1D20A900
02101100
4ED1EB20
04FBF600
00BFB000
008F9000
004F7000
002F6000
002F6000
002F4000
00071000
ENDCHAR
STARTCHAR Ydieresis
ENCODING 376
SWIDTH 688 0
DWIDTH 8 0
BBX 8 13 0 -1
BITMAP
03523740
0BF6AF80
0BF6AF90
02412210
4EF65EB4
02EDBF70
005FFB00
000EF700
0008F600
0004F500
0003F400
0001F300
00004000
ENDCHAR
STARTCHAR Zacute
ENCODING 377
SWIDTH 695 0
DWIDTH 8 0
BBX 8 12 0 -1
BITMAP
000003D1
00005EE7
00227400
6EFFFEB3
2FFFFFD0
0BFFFF60
09ACFC00
001EC100
005F3000
00BD7100
01EFE100
00113000
ENDCHAR
STARTCHAR zacute
ENCODING 378
SWIDTH 622 0
DWIDTH 7 0
BBX 8 12 0 -1
BITMAP
00000A60
0002BFB1
01258200
6FFFFE40
2FFFFE10
0AFFFB00
08BDF400
011F8000
005E1000
00AC6000
00EFE000
00235000
ENDCHAR
STARTCHAR Zdotaccent
ENCODING 379
SWIDTH 695 0
DWIDTH 8 0
BBX 8 13 0 -1
BITMAP
005CD500
006FF600
004FF600
00486200
6EFFFEB3
2FFFFFD0
0BFFFF60
09ACFC00
001EC100
005F3000
00BD7100
01EFE100
00113000
ENDCHAR
STARTCHAR zdotaccent
ENCODING 380
SWIDTH 622 0
DWIDTH 7 0
BBX 7 13 0 -1
BITMAP
01BDA000
00FFC000
00EFC000
01875000
6FFFFE40
2FFFFE10
0AFFFB00
08BDF400
011F8000
005E1000
00AC6000
00EFE000
00235000
ENDCHAR
STARTCHAR Zcaron
ENCODING 381
SWIDTH 693 0
DWIDTH 8 0
BBX 8 15 0 -1
BITMAP
02A01A10
01F78F20
00AEF900
004EF200
00000000
00222000
6EFFFEB3
2FFFFFD0
0BFFFF60
09ACFC00
001EC100
005F3000
00BD7100
01EFE100
00113000
ENDCHAR
STARTCHAR zcaron
ENCODING 382
SWIDTH 621 0
DWIDTH 7 0
BBX 7 15 0 -1
BITMAP
09506700
09E2E900
03FEF200
00BD9000
00000000
01222000
6FFFFE40
2FFFFE10
0AFFFB00
08BDF400
011F8000
005E1000
00AC6000
00EFE000
00235000
ENDCHAR
STARTCHAR DZ
ENCODING 497
SWIDTH 194 0
DWIDTH 2 0
BBX 1 1 0 0
BITMAP
00
ENDCHAR
STARTCHAR Dz
ENCODING 498
SWIDTH 194 0
DWIDTH 2 0
BBX 1 1 0 0
BITMAP
00
ENDCHAR
STARTCHAR dotlessj
ENCODING 567
SWIDTH 458 0
DWIDTH 5 0
BBX 6 10 -1 -1
BITMAP
001200
007FE6
002FF4
000EF1
000EF1
000DF0
194DD0
0FADB0
09FF70
001320
ENDCHAR
STARTCHAR circumflex
ENCODING 710
SWIDTH 528 0
DWIDTH 6 0
BBX 6 5 0 7
BITMAP
016600
08FF50
1E9CC0
6B02E3
010010
ENDCHAR
STARTCHAR caron
ENCODING 711
SWIDTH 486 0
DWIDTH 5 0
BBX 6 5 0 7
BITMAP
450160
8E1AE1
2FCF70
0AFE10
012200
ENDCHAR
STARTCHAR breve
ENCODING 728
SWIDTH 464 0
DWIDTH 5 0
BBX 5 4 0 -1
BITMAP
240100
6E1C90
2DFF40
013700
ENDCHAR
STARTCHAR dotaccent
ENCODING 729
SWIDTH 388 0
DWIDTH 4 0
BBX 4 4 0 2
BITMAP
4BD7
3FF8
2FF9
1753
ENDCHAR
STARTCHAR ring
ENCODING 730
SWIDTH 370 0
DWIDTH 4 0
BBX 4 4 0 3
BITMAP
0330
5CD5
4875
19A0
ENDCHAR
STARTCHAR ogonek
ENCODING 731
SWIDTH 360 0
DWIDTH 4 0
BBX 4 5 0 -1
BITMAP
2A00
5B00
5E62
1BF6
0010
ENDCHAR
STARTCHAR tilde
ENCODING 732
SWIDTH 535 0
DWIDTH 6 0
BBX 6 3 0 -1
BITMAP
040450
6FCFF4
09B591
ENDCHAR
STARTCHAR hungarumlaut
ENCODING 733
SWIDTH 554 0
DWIDTH 6 0
BBX 6 5 0 7
BITMAP
021030
09D3F9
1E78D1
680C20
100100
ENDCHAR
STARTCHAR dotaccentcmb
ENCODING 775
SWIDTH 396 0
DWIDTH 4 0
BBX 4 4 0 4
BITMAP
2684
3FF9
2FF9
1CA6
ENDCHAR
STARTCHAR uni030F
ENCODING 783
SWIDTH 549 0
DWIDTH 6 0
BBX 6 5 0 7
BITMAP
030120
8E3CA0
1C96F1
01C087
001001
ENDCHAR
STARTCHAR uni0311
ENCODING 785
SWIDTH 490 0
DWIDTH 5 0
BBX 5 3 0 4
BITMAP
07CA10
2FAE70
5D0790
ENDCHAR
STARTCHAR uni0326
ENCODING 806
SWIDTH 360 0
DWIDTH 4 0
BBX 4 5 0 -1
BITMAP
2BA3
4FF5
4EF5
00D4
00F2
ENDCHAR
STARTCHAR endash
ENCODING 8211
SWIDTH 478 0
DWIDTH 5 0
BBX 5 3 0 3
BITMAP
144430
5FFF70
4BBB50
ENDCHAR
STARTCHAR emdash
ENCODING 8212
SWIDTH 567 0
DWIDTH 6 0
BBX 6 3 0 3
BITMAP
143443
5FFFF7
4BBCB4
ENDCHAR
STARTCHAR quoteleft
ENCODING 8216
SWIDTH 373 0
DWIDTH 4 0
BBX 4 7 0 2
BITMAP
0100
2F00
4D00
5FE7
5FF7
5FF7
1341
ENDCHAR
STARTCHAR quoteright
ENCODING 8217
SWIDTH 369 0
DWIDTH 4 0
BBX 4 7 0 2
BITMAP
0100
6FE5
7FF6
7FF6
12D5
00E2
0040
ENDCHAR
STARTCHAR quotesinglbase
ENCODING 8218
SWIDTH 369 0
DWIDTH 4 0
BBX 4 7 0 2
BITMAP
0100
6FE5
7FF6
7FF6
12D5
00E2
0040
ENDCHAR
STARTCHAR quotedblleft
ENCODING 8220
SWIDTH 687 0
DWIDTH 8 0
BBX 7 7 0 2
BITMAP
01000000
2F00A700
4D00C500
5FE7DFE0
5FF7EFE0
5FF7DFE0
13412330
ENDCHAR
STARTCHAR quotedblright
ENCODING 8221
SWIDTH 677 0
DWIDTH 7 0
BBX 7 7 0 2
BITMAP
01101000
6FF3DFB0
7FF3EFB0
8FF3EFB0
13D228A0
00F00980
00400320
ENDCHAR
STARTCHAR quotedblbase
ENCODING 8222
SWIDTH 697 0
DWIDTH 8 0
BBX 8 6 0 -4
BITMAP
6FE5AEE1
7FF6BFF2
7FF6CFF1
13D524F1
00E303D0
00500140
ENDCHAR
STARTCHAR ellipsis
ENCODING 8230
SWIDTH 1462 0
DWIDTH 16 0
BBX 16 4 0 0
BITMAP
4BD4003BD4003BD6
4FF5002FF5002FF7
3FF5001FF5001FF8
1752000752000753
ENDCHAR
STARTCHAR guilsinglleft
ENCODING 8249
SWIDTH 459 0
DWIDTH 5 0
BBX 5 7 0 0
BITMAP
03BB60
09FC10
5FF300
7FD100
1CF700
01DF60
001220
ENDCHAR
STARTCHAR guilsinglright
ENCODING 8250
SWIDTH 432 0
DWIDTH 5 0
BBX 5 7 0 0
BITMAP
6BB100
1DF600
03FE30
01EF40
09F900
7FD100
111000
ENDCHAR
STARTCHAR fraction
ENCODING 8260
SWIDTH 371 0
DWIDTH 4 0
BBX 4 10 0 -1
BITMAP
0220
AFFC
1EF6
0DF4
0DF2
0CF1
0AE1
08D0
07C0
0020
ENDCHAR
STARTCHAR Euro
ENCODING 8364
SWIDTH 587 0
DWIDTH 6 0
BBX 6 12 0 -3
BITMAP
000210
02DFE5
0BFFFE
0DFFFE
0BFAFE
7DF788
6CF620
15F6F7
01FFE2
004560
002400
000100
ENDCHAR
STARTCHAR trademark
ENCODING 8482
SWIDTH 785 0
DWIDTH 9 0
BBX 9 7 0 2
BITMAP
1220243300
AFF99EAF10
7FF76FFD00
17A15EEC00
06903CCB00
0590176600
0210000000
ENDCHAR
STARTCHAR minus
ENCODING 8722
SWIDTH 478 0
DWIDTH 5 0
BBX 5 3 0 3
BITMAP
144430
5FFF70
4BBB40
ENDCHAR
STARTCHAR commaaccent
ENCODING 63171
SWIDTH 360 0
DWIDTH 4 0
BBX 4 6 0 -2
BITMAP
4BA3
7FF6
7FF6
37D5
00D3
0091
ENDCHAR
STARTCHAR .notdef
ENCODING -1
SWIDTH 365 0
DWIDTH 4 0
BBX 4 8 0 0
BITMAP
3551
6024
6014
6014
6014
6014
6014
7564
ENDCHAR
STARTCHAR .null
ENCODING -1
SWIDTH 0 0
DWIDTH 0 0
BBX 1 1 0 0
BITMAP
00
ENDCHAR
STARTCHAR nonmarkingreturn
ENCODING -1
SWIDTH 333 0
DWIDTH 4 0
BBX 1 1 0 0
BITMAP
00
ENDCHAR
ENDFONT
